<svg id="Layer_1" data-name="Layer 1" xmlns="http://www.w3.org/2000/svg" viewBox="0 0 1599.43 996"><defs><style>.cls-1,.cls-5{fill:#813830;}.cls-2{fill:#bf5249;}.cls-3{fill:#4b201c;}.cls-4{opacity:0.64;}.cls-10,.cls-14,.cls-18,.cls-23,.cls-27,.cls-28,.cls-5{opacity:0.52;}.cls-6{fill:#fce7ca;}.cls-10,.cls-7{fill:#96948a;}.cls-8{fill:#fbede4;}.cls-9{fill:#646861;}.cls-11,.cls-14{fill:#6d6937;}.cls-12{fill:#a7a250;}.cls-13{fill:#35321c;}.cls-15,.cls-18{fill:#488a3a;}.cls-16{fill:#c0e7b8;}.cls-17{fill:#26441e;}.cls-19,.cls-23{fill:#8c771f;}.cls-20{fill:#ffe357;}.cls-21{fill:#e4da5f;}.cls-22{fill:#4f4413;}.cls-24{fill:#8d6198;}.cls-25{fill:#d790e4;}.cls-26,.cls-27{fill:#5e4165;}.cls-28,.cls-29{fill:#604166;}.cls-30{fill:#e4d95e;}.cls-31{fill:#d0b72e;}.cls-32{fill:#af4f3d;}.cls-33{fill:#c36957;}.cls-34{fill:#4b8c3d;}.cls-35{fill:#bfe7b7;}.cls-36{fill:#d689e2;}.cls-37{fill:#f3b2fd;}.cls-38{fill:#9d9b90;}.cls-39{fill:#908c4b;}</style></defs><title>barrels</title><ellipse class="cls-1" cx="146.67" cy="409" rx="124.01" ry="45"/><ellipse class="cls-2" cx="146.67" cy="398" rx="118.5" ry="43"/><path class="cls-2" d="M211,88a542.28,542.28,0,0,0,0,345H448a508.89,508.89,0,0,0,30-189A507.44,507.44,0,0,0,448,88" transform="translate(-182.83 -35)"/><ellipse class="cls-1" cx="147.22" cy="60" rx="124.01" ry="44"/><ellipse class="cls-2" cx="146.67" cy="60" rx="104.72" ry="36"/><ellipse class="cls-3" cx="146.67" cy="62.5" rx="97.83" ry="30.5"/><g class="cls-4"><path class="cls-5" d="M334.19,482c4,.21,14.88-82.55,14.81-175-.07-91.38-10.82-173.35-14.81-173.15-1.41.07-2.18,10.32-2.19,170.15C332,472.65,332.85,481.9,334.19,482Z" transform="translate(-182.83 -35)"/></g><path class="cls-6" d="M387,363a352.63,352.63,0,0,0-106,0,237.08,237.08,0,0,0,0-106,282.28,282.28,0,0,0,49,5,282.06,282.06,0,0,0,57-5,237,237,0,0,0,0,106Z" transform="translate(-182.83 -35)"/><g class="cls-4"><path class="cls-5" d="M250.81,468c-4.28,1.92-45-75.28-45-174s40.74-176,45-174.06c3.92,1.74-24.68,69.53-25,172.16C225.49,396.66,254.8,466.18,250.81,468Z" transform="translate(-182.83 -35)"/></g><g class="cls-4"><path class="cls-5" d="M412.19,473c4.28,1.92,45-75.28,45-174s-40.74-176-45-174.06c-3.92,1.74,24.68,69.53,25,172.16C437.51,401.66,408.2,471.18,412.19,473Z" transform="translate(-182.83 -35)"/></g><circle class="cls-3" cx="197.67" cy="229.5" r="3.5"/><circle class="cls-3" cx="197.67" cy="321.5" r="3.5"/><circle class="cls-3" cx="104.67" cy="227.5" r="3.5"/><circle class="cls-3" cx="104.67" cy="321.5" r="3.5"/><path class="cls-1" d="M475,202.41A415.65,415.65,0,0,1,332,228.5,415.86,415.86,0,0,1,186,202l3-33.49c32.74,14.91,82.15,31.68,143,31.3,58.87-.36,106.79-16.63,139-31.3Q473,185.45,475,202.41Z" transform="translate(-182.83 -35)"/><path class="cls-1" d="M460,395a506,506,0,0,1-128,17,506,506,0,0,1-132-17l-6-26a433,433,0,0,0,138,22.43A433,433,0,0,0,466,370Z" transform="translate(-182.83 -35)"/><path class="cls-3" d="M190,386" transform="translate(-182.83 -35)"/><circle class="cls-3" cx="155.17" cy="181" r="6"/><circle class="cls-3" cx="86.17" cy="175" r="6"/><circle class="cls-3" cx="29.17" cy="161" r="6"/><circle class="cls-3" cx="216.17" cy="174" r="6"/><circle class="cls-3" cx="273.17" cy="160" r="6"/><circle class="cls-3" cx="153.17" cy="368" r="6"/><circle class="cls-3" cx="84.17" cy="363" r="6"/><circle class="cls-3" cx="27.17" cy="351" r="6"/><circle class="cls-3" cx="214.17" cy="362" r="6"/><circle class="cls-3" cx="271.17" cy="350" r="6"/><ellipse class="cls-7" cx="777.67" cy="393" rx="124.01" ry="45"/><ellipse class="cls-8" cx="777.67" cy="382" rx="118.5" ry="43"/><path class="cls-8" d="M842,72a542.28,542.28,0,0,0,0,345h237a506.67,506.67,0,0,0,0-345" transform="translate(-182.83 -35)"/><ellipse class="cls-7" cx="778.22" cy="44" rx="124.01" ry="44"/><ellipse class="cls-8" cx="777.67" cy="44" rx="104.72" ry="36"/><ellipse class="cls-9" cx="777.67" cy="46.5" rx="97.83" ry="30.5"/><g class="cls-4"><path class="cls-10" d="M965.19,466c4,.21,14.88-82.55,14.81-175-.07-91.38-10.82-173.35-14.81-173.15-1.41.07-2.18,10.32-2.19,170.15C963,456.65,963.85,465.9,965.19,466Z" transform="translate(-182.83 -35)"/></g><path class="cls-6" d="M1018,347a352.63,352.63,0,0,0-106,0,237.08,237.08,0,0,0,0-106,282.28,282.28,0,0,0,49,5,282.06,282.06,0,0,0,57-5,237,237,0,0,0,0,106Z" transform="translate(-182.83 -35)"/><g class="cls-4"><path class="cls-10" d="M881.81,452c-4.28,1.92-45-75.28-45-174s40.74-176,45-174.06c3.92,1.74-24.68,69.53-25,172.16C856.49,380.66,885.8,450.18,881.81,452Z" transform="translate(-182.83 -35)"/></g><g class="cls-4"><path class="cls-10" d="M1043.19,457c4.28,1.92,45-75.28,45-174s-40.74-176-45-174.06c-3.92,1.74,24.68,69.53,25,172.16C1068.51,385.66,1039.2,455.18,1043.19,457Z" transform="translate(-182.83 -35)"/></g><circle class="cls-9" cx="828.67" cy="213.5" r="3.5"/><circle class="cls-9" cx="828.67" cy="305.5" r="3.5"/><circle class="cls-9" cx="735.67" cy="211.5" r="3.5"/><circle class="cls-9" cx="735.67" cy="305.5" r="3.5"/><path class="cls-7" d="M1106,186.41A415.65,415.65,0,0,1,963,212.5,415.86,415.86,0,0,1,817,186l3-33.49c32.74,14.91,82.15,31.68,143,31.3,58.87-.36,106.79-16.63,139-31.3Q1104,169.45,1106,186.41Z" transform="translate(-182.83 -35)"/><path class="cls-7" d="M1091,379a506,506,0,0,1-128,17,506,506,0,0,1-132-17l-6-26a433,433,0,0,0,138,22.43A433,433,0,0,0,1097,354Z" transform="translate(-182.83 -35)"/><path class="cls-3" d="M821,370" transform="translate(-182.83 -35)"/><circle class="cls-9" cx="786.17" cy="165" r="6"/><circle class="cls-9" cx="717.17" cy="159" r="6"/><circle class="cls-9" cx="660.17" cy="145" r="6"/><circle class="cls-9" cx="847.17" cy="158" r="6"/><circle class="cls-9" cx="904.17" cy="144" r="6"/><circle class="cls-9" cx="784.17" cy="352" r="6"/><circle class="cls-9" cx="715.17" cy="347" r="6"/><circle class="cls-9" cx="658.17" cy="335" r="6"/><circle class="cls-9" cx="845.17" cy="346" r="6"/><circle class="cls-9" cx="902.17" cy="334" r="6"/><ellipse class="cls-11" cx="1433.67" cy="393" rx="124.01" ry="45"/><ellipse class="cls-12" cx="1433.67" cy="382" rx="118.5" ry="43"/><path class="cls-12" d="M1498,72a542.28,542.28,0,0,0,0,345h237a506.67,506.67,0,0,0,0-345" transform="translate(-182.83 -35)"/><ellipse class="cls-11" cx="1434.22" cy="44" rx="124.01" ry="44"/><ellipse class="cls-12" cx="1433.67" cy="44" rx="104.72" ry="36"/><ellipse class="cls-13" cx="1433.67" cy="46.5" rx="97.83" ry="30.5"/><g class="cls-4"><path class="cls-14" d="M1621.19,466c4,.21,14.88-82.55,14.81-175-.07-91.38-10.82-173.35-14.81-173.15-1.41.07-2.18,10.32-2.19,170.15C1619,456.65,1619.85,465.9,1621.19,466Z" transform="translate(-182.83 -35)"/></g><path class="cls-6" d="M1674,347a352.63,352.63,0,0,0-106,0,237.08,237.08,0,0,0,0-106,282.28,282.28,0,0,0,49,5,282.06,282.06,0,0,0,57-5,237,237,0,0,0,0,106Z" transform="translate(-182.83 -35)"/><g class="cls-4"><path class="cls-14" d="M1537.81,452c-4.28,1.92-45-75.28-45-174s40.74-176,45-174.06c3.92,1.74-24.68,69.53-25,172.16C1512.49,380.66,1541.8,450.18,1537.81,452Z" transform="translate(-182.83 -35)"/></g><g class="cls-4"><path class="cls-14" d="M1699.19,457c4.28,1.92,45-75.28,45-174s-40.74-176-45-174.06c-3.92,1.74,24.68,69.53,25,172.16C1724.51,385.66,1695.2,455.18,1699.19,457Z" transform="translate(-182.83 -35)"/></g><circle class="cls-13" cx="1484.67" cy="213.5" r="3.5"/><circle class="cls-13" cx="1484.67" cy="305.5" r="3.5"/><circle class="cls-13" cx="1391.67" cy="211.5" r="3.5"/><circle class="cls-13" cx="1391.67" cy="305.5" r="3.5"/><path class="cls-11" d="M1762,186.41a415.65,415.65,0,0,1-143,26.09A415.86,415.86,0,0,1,1473,186l3-33.49c32.74,14.91,82.15,31.68,143,31.3,58.87-.36,106.79-16.63,139-31.3Q1760,169.45,1762,186.41Z" transform="translate(-182.83 -35)"/><path class="cls-11" d="M1747,379a506,506,0,0,1-128,17,506,506,0,0,1-132-17l-6-26a433,433,0,0,0,138,22.43A433,433,0,0,0,1753,354Z" transform="translate(-182.83 -35)"/><path class="cls-3" d="M1477,370" transform="translate(-182.83 -35)"/><circle class="cls-13" cx="1442.17" cy="165" r="6"/><circle class="cls-13" cx="1373.17" cy="159" r="6"/><circle class="cls-13" cx="1316.17" cy="145" r="6"/><circle class="cls-13" cx="1503.17" cy="158" r="6"/><circle class="cls-13" cx="1560.17" cy="144" r="6"/><circle class="cls-13" cx="1440.17" cy="352" r="6"/><circle class="cls-13" cx="1371.17" cy="347" r="6"/><circle class="cls-13" cx="1314.17" cy="335" r="6"/><circle class="cls-13" cx="1501.17" cy="346" r="6"/><circle class="cls-13" cx="1558.17" cy="334" r="6"/><ellipse class="cls-15" cx="780.67" cy="951" rx="124.01" ry="45"/><ellipse class="cls-16" cx="780.67" cy="940" rx="118.5" ry="43"/><path class="cls-16" d="M845,630a542.28,542.28,0,0,0,0,345h237a506.67,506.67,0,0,0,0-345" transform="translate(-182.83 -35)"/><ellipse class="cls-15" cx="781.22" cy="602" rx="124.01" ry="44"/><ellipse class="cls-16" cx="780.67" cy="602" rx="104.72" ry="36"/><ellipse class="cls-17" cx="780.67" cy="604.5" rx="97.83" ry="30.5"/><g class="cls-4"><path class="cls-18" d="M968.19,1024c4,.21,14.88-82.55,14.81-175-.07-91.38-10.82-173.35-14.81-173.15-1.41.07-2.18,10.32-2.19,170.15C966,1014.65,966.85,1023.9,968.19,1024Z" transform="translate(-182.83 -35)"/></g><path class="cls-6" d="M1021,905a352.63,352.63,0,0,0-106,0,237.08,237.08,0,0,0,0-106,281.83,281.83,0,0,0,106,0,237,237,0,0,0,0,106Z" transform="translate(-182.83 -35)"/><g class="cls-4"><path class="cls-18" d="M884.81,1010c-4.28,1.92-45-75.28-45-174.05s40.74-176,45-174.06c3.92,1.74-24.68,69.53-25,172.16C859.49,938.66,888.8,1008.18,884.81,1010Z" transform="translate(-182.83 -35)"/></g><g class="cls-4"><path class="cls-18" d="M1046.19,1015c4.28,1.92,45-75.28,45-174.05s-40.74-176-45-174.06c-3.92,1.74,24.68,69.53,25,172.16C1071.51,943.66,1042.2,1013.18,1046.19,1015Z" transform="translate(-182.83 -35)"/></g><circle class="cls-17" cx="831.67" cy="771.5" r="3.5"/><circle class="cls-17" cx="831.67" cy="863.5" r="3.5"/><circle class="cls-17" cx="738.67" cy="769.5" r="3.5"/><circle class="cls-17" cx="738.67" cy="863.5" r="3.5"/><path class="cls-15" d="M1109,744.41A410.1,410.1,0,0,1,820,744l3-33.49c32.74,14.91,82.15,31.68,143,31.3,58.87-.36,106.79-16.63,139-31.3Q1107,727.45,1109,744.41Z" transform="translate(-182.83 -35)"/><path class="cls-15" d="M1094,937a505.45,505.45,0,0,1-260,0l-6-26a432.72,432.72,0,0,0,272,1Z" transform="translate(-182.83 -35)"/><path class="cls-3" d="M824,928" transform="translate(-182.83 -35)"/><circle class="cls-17" cx="789.17" cy="723" r="6"/><circle class="cls-17" cx="720.17" cy="717" r="6"/><circle class="cls-17" cx="663.17" cy="703" r="6"/><circle class="cls-17" cx="850.17" cy="716" r="6"/><circle class="cls-17" cx="907.17" cy="702" r="6"/><circle class="cls-17" cx="787.17" cy="910" r="6"/><circle class="cls-17" cx="718.17" cy="905" r="6"/><circle class="cls-17" cx="661.17" cy="893" r="6"/><circle class="cls-17" cx="848.17" cy="904" r="6"/><circle class="cls-17" cx="905.17" cy="892" r="6"/><ellipse class="cls-19" cx="1450.67" cy="941" rx="124.01" ry="45"/><ellipse class="cls-20" cx="1450.67" cy="930" rx="118.5" ry="43"/><path class="cls-20" d="M1515,620a542.28,542.28,0,0,0,0,345h237a506.67,506.67,0,0,0,0-345" transform="translate(-182.83 -35)"/><ellipse class="cls-19" cx="1451.22" cy="592" rx="124.01" ry="44"/><ellipse class="cls-21" cx="1450.67" cy="592" rx="104.72" ry="36"/><ellipse class="cls-22" cx="1450.67" cy="594.5" rx="97.83" ry="30.5"/><g class="cls-4"><path class="cls-23" d="M1638.19,1014c4,.21,14.88-82.55,14.81-175-.07-91.38-10.82-173.35-14.81-173.15-1.41.07-2.18,10.32-2.19,170.15C1636,1004.65,1636.85,1013.9,1638.19,1014Z" transform="translate(-182.83 -35)"/></g><path class="cls-6" d="M1691,895a352.63,352.63,0,0,0-106,0,237.08,237.08,0,0,0,0-106,281.83,281.83,0,0,0,106,0,237,237,0,0,0,0,106Z" transform="translate(-182.83 -35)"/><g class="cls-4"><path class="cls-23" d="M1554.81,1000c-4.28,1.92-45-75.28-45-174.05s40.74-176,45-174.06c3.92,1.74-24.68,69.53-25,172.16C1529.49,928.66,1558.8,998.18,1554.81,1000Z" transform="translate(-182.83 -35)"/></g><g class="cls-4"><path class="cls-23" d="M1716.19,1005c4.28,1.92,45-75.28,45-174.05s-40.74-176-45-174.06c-3.92,1.74,24.68,69.53,25,172.16C1741.51,933.66,1712.2,1003.18,1716.19,1005Z" transform="translate(-182.83 -35)"/></g><circle class="cls-22" cx="1501.67" cy="761.5" r="3.5"/><circle class="cls-22" cx="1501.67" cy="853.5" r="3.5"/><circle class="cls-22" cx="1408.67" cy="759.5" r="3.5"/><circle class="cls-22" cx="1408.67" cy="853.5" r="3.5"/><path class="cls-19" d="M1779,734.41a410.1,410.1,0,0,1-289-.42l3-33.49c32.74,14.91,82.15,31.68,143,31.3,58.87-.36,106.79-16.63,139-31.3Q1777,717.45,1779,734.41Z" transform="translate(-182.83 -35)"/><path class="cls-19" d="M1764,927a505.45,505.45,0,0,1-260,0l-6-26a432.72,432.72,0,0,0,272,1Z" transform="translate(-182.83 -35)"/><path class="cls-3" d="M1494,918" transform="translate(-182.83 -35)"/><circle class="cls-22" cx="1459.17" cy="713" r="6"/><circle class="cls-22" cx="1390.17" cy="707" r="6"/><circle class="cls-22" cx="1333.17" cy="693" r="6"/><circle class="cls-22" cx="1520.17" cy="706" r="6"/><circle class="cls-22" cx="1577.17" cy="692" r="6"/><circle class="cls-22" cx="1457.17" cy="900" r="6"/><circle class="cls-22" cx="1388.17" cy="895" r="6"/><circle class="cls-22" cx="1331.17" cy="883" r="6"/><circle class="cls-22" cx="1518.17" cy="894" r="6"/><circle class="cls-22" cx="1575.17" cy="882" r="6"/><ellipse class="cls-24" cx="147.66" cy="936.2" rx="124.87" ry="45.31"/><ellipse class="cls-25" cx="148.67" cy="924" rx="118.5" ry="43"/><path class="cls-25" d="M213,614a542.28,542.28,0,0,0,0,345H450a508.89,508.89,0,0,0,30-189,507.44,507.44,0,0,0-30-156" transform="translate(-182.83 -35)"/><ellipse class="cls-24" cx="148.22" cy="584.79" rx="124.87" ry="44.3"/><ellipse class="cls-25" cx="148.67" cy="586" rx="104.72" ry="36"/><ellipse class="cls-26" cx="148.67" cy="588.5" rx="97.83" ry="30.5"/><g class="cls-4"><path class="cls-27" d="M336.19,1008c4,.21,14.88-82.55,14.81-175-.07-91.38-10.82-173.35-14.81-173.15-1.41.07-2.18,10.32-2.19,170.15C334,998.65,334.85,1007.9,336.19,1008Z" transform="translate(-182.83 -35)"/></g><path class="cls-6" d="M389,889a352.63,352.63,0,0,0-106,0,237.08,237.08,0,0,0,0-106,281.83,281.83,0,0,0,106,0,237,237,0,0,0,0,106Z" transform="translate(-182.83 -35)"/><g class="cls-4"><path class="cls-28" d="M252.81,994c-4.28,1.92-45-75.28-45-174.05s40.74-176,45-174.06c3.92,1.74-24.68,69.53-25,172.16C227.49,922.66,256.8,992.18,252.81,994Z" transform="translate(-182.83 -35)"/></g><g class="cls-4"><path class="cls-28" d="M413.75,1000.37c4.32,1.93,45.34-75.8,45.31-175.26s-41-177.18-45.31-175.27c-3.94,1.76,24.86,70,25.17,173.35C439.25,928.57,409.74,998.57,413.75,1000.37Z" transform="translate(-182.83 -35)"/></g><circle class="cls-26" cx="199.67" cy="755.5" r="3.5"/><circle class="cls-26" cx="199.67" cy="847.5" r="3.5"/><circle class="cls-26" cx="106.67" cy="753.5" r="3.5"/><circle class="cls-26" cx="106.67" cy="847.5" r="3.5"/><path class="cls-24" d="M477,728a413,413,0,0,1-291-.43l3-33.72c33,15,82.72,31.89,144,31.52,59.28-.37,107.53-16.75,140-31.52Q475,710.87,477,728Z" transform="translate(-182.83 -35)"/><path class="cls-24" d="M462,921a505.45,505.45,0,0,1-260,0l-6-26a432.72,432.72,0,0,0,272,1Z" transform="translate(-182.83 -35)"/><path class="cls-3" d="M192,912" transform="translate(-182.83 -35)"/><circle class="cls-29" cx="157.17" cy="707" r="6"/><circle class="cls-26" cx="88.17" cy="701" r="6"/><circle class="cls-26" cx="31.17" cy="687" r="6"/><circle class="cls-26" cx="218.17" cy="700" r="6"/><circle class="cls-26" cx="275.17" cy="686" r="6"/><circle class="cls-26" cx="155.17" cy="894" r="6"/><circle class="cls-26" cx="86.17" cy="889" r="6"/><circle class="cls-26" cx="29.17" cy="877" r="6"/><circle class="cls-26" cx="216.17" cy="888" r="6"/><circle class="cls-26" cx="273.17" cy="876" r="6"/><path class="cls-30" d="M1640.1,809.19c.94,0,1.89,0,2.83,0a27.81,27.81,0,0,1,3.76.35,26.61,26.61,0,0,1,3.91.49,33.61,33.61,0,0,1,4.28,1.21,4.1,4.1,0,0,0,1.24.35,1.37,1.37,0,0,1,1,.52.72.72,0,0,0,.42.27,4.28,4.28,0,0,1,1.56.73,14.93,14.93,0,0,0,2,1,25.45,25.45,0,0,1,3.2,2.19c1,.7,1.81,1.59,2.76,2.33a11.42,11.42,0,0,1,1.77,2c.82,1,1.74,2,2.62,3,.68.75,1.1,1.66,1.79,2.39a32,32,0,0,1,2.61,3.77,1.16,1.16,0,0,1,.2.4,7,7,0,0,0,.75,1.67c.5,1.06,1.31,2,1.45,3.22a1.57,1.57,0,0,0,.26.73,4.34,4.34,0,0,1,.64,2.3,32.27,32.27,0,0,1,.08,5.2,40.08,40.08,0,0,1-.43,5.9,8.81,8.81,0,0,1-.47,1.51,6.14,6.14,0,0,0-.32,2c0,.21,0,.47-.11.6-.68.53-.48,1.33-.7,2a18,18,0,0,1-1.23,3.31c-.64,1.14-1.31,2.27-1.91,3.44,0,0,0,0,0,.05-.79.6-1,1.61-1.78,2.29a22.14,22.14,0,0,0-1.83,2.21,1.1,1.1,0,0,1-.09.14c-.85.68-1.35,1.68-2.22,2.37a42.18,42.18,0,0,1-5.49,4c-1.19.67-2.35,1.4-3.52,2.12a.75.75,0,0,1-.2.1c-1.28.4-2.39,1.17-3.62,1.65a22.82,22.82,0,0,1-2.79,1c-1.18.29-2.3.79-3.51,1a41.47,41.47,0,0,1-7.36,1c-1.44,0-2.87.12-4.3.06a29.33,29.33,0,0,1-6-.73c-1.12-.29-2.31-.26-3.46-.49a17.59,17.59,0,0,1-5.64-2,28.08,28.08,0,0,0-2.67-1.23,20.49,20.49,0,0,1-2.76-1.51c-.64-.42-1.34-.73-2-1.18a5.17,5.17,0,0,1-1-.76c-.65-.76-1.65-1-2.34-1.71-1.15-1.1-2.45-2-3.64-3.07-.64-.57-1.14-1.26-1.73-1.87-1-1-1.71-2.29-2.68-3.34a9.68,9.68,0,0,1-1-1.5c-.83-1.41-1.53-2.9-2.42-4.27a26,26,0,0,1-1.08-2.44c-.54-1.06-.71-2.24-1.36-3.26a6.25,6.25,0,0,1-.47-2.59,21,21,0,0,1,0-4.34,44.81,44.81,0,0,1,.41-4.66,13.6,13.6,0,0,1,1-3.85c.46-.9.77-1.86,1.21-2.76a16.37,16.37,0,0,1,1.64-3,11.78,11.78,0,0,1,1.54-2.27s.1-.08.11-.12c.2-.91,1-1.48,1.3-2.33a11.53,11.53,0,0,1,1.32-2c.8-1.33,1.88-2.47,2.73-3.78a8.41,8.41,0,0,1,2.17-2.2,9.87,9.87,0,0,0,1.11-1,9.34,9.34,0,0,1,2.31-1.5,35.44,35.44,0,0,1,5.37-2.51,29.62,29.62,0,0,1,4.44-1.27,13.31,13.31,0,0,1,2.21-.6c.77,0,1.53-.14,2.3-.17,1.83-.08,3.66-.11,5.48-.28A52.14,52.14,0,0,1,1640.1,809.19Zm-12.22,64.21c-1.39.09-2.69-.67-4-1.12a19,19,0,0,1-3.49-1.38c-1.3-.76-2.64-1.52-4-2.19a5.3,5.3,0,0,1-1.52-1c-.87-.92-2.13-1.34-2.92-2.37-.44-.57-1.18-.84-1.69-1.38s-1.3-1.24-2-1.86c-.2-.2-.52-.27-.61-.57-.27-.84-1-1.34-1.49-2-.67-.95-1.4-1.85-2-2.85-.34-.59-.2-1,.44-1.19a13.37,13.37,0,0,1,2.45-1.07c.13,0,.25-.16.35-.27a1.15,1.15,0,0,1,1-.42,1.41,1.41,0,0,0,1.06-.31,1.94,1.94,0,0,1,1.07-.46,3.34,3.34,0,0,0,1.3-.51A3.89,3.89,0,0,1,1613,852a13.75,13.75,0,0,0,2.82-1.27c1-.53,2.06-.89,3.08-1.34s1.79-.85,2.68-1.27,2-1,3-1.41a1.1,1.1,0,0,0,.6-1.71,10.82,10.82,0,0,0-1.07-1.51,1.36,1.36,0,0,0-2.18-.18,1.87,1.87,0,0,1-.68.37,20,20,0,0,1-2.81,1.21c-.15,0-.28.19-.41.3a1.07,1.07,0,0,1-.61.26,2.53,2.53,0,0,0-1.19.5,7.12,7.12,0,0,1-.93.42c-1,.41-2,.83-3,1.28s-1.69.87-2.58,1.2c-1.14.41-2.23,1-3.36,1.42-.19.08-.35.26-.54.29a33.89,33.89,0,0,0-3.54,1.27,1.3,1.3,0,0,1-1.67-.94,3.28,3.28,0,0,0-.62-1.49,2.1,2.1,0,0,1-.4-1,23.17,23.17,0,0,0-.4-2.72c-.27-1-.88-1.93-.75-3,0-.23-.21-.54-.45-.44a.51.51,0,0,0-.26.72c.46.68.18,1.33,0,2a2.12,2.12,0,0,0,0,1.17,19.62,19.62,0,0,1,.73,3.8,5.26,5.26,0,0,0,.79,2.66,2.22,2.22,0,0,1,.25.68c.16.55,0,1.2.45,1.65a9.24,9.24,0,0,1,1.44,2.32c.45.9,1.34,1.62,1.34,2.73,0,.07.07.14.13.19.78.59.93,1.63,1.66,2.3a4.46,4.46,0,0,1,.9.89,20.74,20.74,0,0,0,2.64,3.13c.58.6,1.23,1.11,1.83,1.68a31.57,31.57,0,0,1,2.64,2.4.39.39,0,0,0,.35.17,1.05,1.05,0,0,1,.89.38,5.53,5.53,0,0,0,1,.72,6.66,6.66,0,0,1,1.5,1.06,1.51,1.51,0,0,0,.93.55,1.16,1.16,0,0,1,.68.36,2,2,0,0,0,1.09.56.6.6,0,0,1,.39.21,1.46,1.46,0,0,0,1,.57,1.19,1.19,0,0,1,1,.58c.1.18.34.2.55.25a2.57,2.57,0,0,1,1.3.47,8.72,8.72,0,0,0,2.64,1.18c1.13.46,2.54,0,3.58.91,0,0,.14,0,.22,0a19.63,19.63,0,0,1,2.87.13,5.22,5.22,0,0,1,2.92.69.77.77,0,0,0,.49.08c1.74,0,3.48,0,5.22,0a9.28,9.28,0,0,1,1.9,0,1.26,1.26,0,0,0,1.06-.3,1.81,1.81,0,0,1,1.09-.39c.82,0,1.65-.11,2.47-.23a2,2,0,0,0,1-.22,3.3,3.3,0,0,1,1.74-.56,2.88,2.88,0,0,0,1.25-.23,4.35,4.35,0,0,1,1.84-.66,1.51,1.51,0,0,0,.63-.24,5.19,5.19,0,0,1,1.81-.73,13.46,13.46,0,0,0,2.09-1,13.32,13.32,0,0,0,2.14-1.26c.81-.58,1.7-1.09,2.56-1.6a15.53,15.53,0,0,1,1.51-1,9.81,9.81,0,0,0,2.17-1.49,16.57,16.57,0,0,0,2.92-2.82,6.32,6.32,0,0,0,.54-.71,5.77,5.77,0,0,1,1-1.35c.71-.66,1.15-1.52,1.78-2.22a4.91,4.91,0,0,0,1.2-1.91.46.46,0,0,1,.35-.26.5.5,0,0,0,.38-.56c0-.55,0-1,.66-1.22.35-.12.32-.54.19-.8s-.4-.07-.58,0-.65.25-.76.47c-.46,1-1.43,1.38-2.08,2.12a1.37,1.37,0,0,0-.25.3c-.21.52-.53.49-.94.24a16.35,16.35,0,0,1-2.26-1.68c-.45-.4-1.06-.44-1.45-.86a37,37,0,0,0-3-2.33,27.88,27.88,0,0,1-2.56-2.11c-.82-.91-1.94-1.44-2.69-2.44a16.6,16.6,0,0,0-2-1.75l-3.14-2.93a1.41,1.41,0,0,0-1.63-.38c-1,.38-1.35,1.22-1.87,2-.17.25-.42.6-.09.85a13.54,13.54,0,0,1,1.07,1.22c.73.72,1.61,1.3,2.25,2,.8.94,2,1.38,2.68,2.42.38.58,1.08.79,1.54,1.31,1,1.19,2.5,1.92,3.59,3.08.41.45,1.06.49,1.45.95a5.35,5.35,0,0,0,2,1.5,2,2,0,0,1,.52.33,10.94,10.94,0,0,0,1.83,1.42.82.82,0,0,1,.18,1.3,18.61,18.61,0,0,1-3.42,3.09,23.58,23.58,0,0,1-2.66,1.58,9.41,9.41,0,0,1-3.1,1.51,2,2,0,0,0-.32.11,19.09,19.09,0,0,1-4.68,1.51c-1.37.19-2.59.9-4,.94-1,0-1.89.62-2.89.72a7.35,7.35,0,0,0-2.43.43,7.48,7.48,0,0,1-3.29.59c-1.17,0-2.33,0-3.49,0-.83,0-1.66-.08-2.48-.12-1-.05-1.32-.38-1.28-1.43a10.1,10.1,0,0,1,.19-1.45c.06-.29-.1-.66.14-.87a3.06,3.06,0,0,0,.67-2.37,5.9,5.9,0,0,1,.28-1.77,10,10,0,0,0,.77-4.24,1.14,1.14,0,0,1,.26-.79,5.14,5.14,0,0,0,.64-2.19c.2-1.16-.1-2.41.7-3.44a.78.78,0,0,0,.09-.27c.25-1,.19-2,.43-3a1,1,0,0,0-.83-1.32c-.53-.16-1.06-.28-1.59-.41a1.67,1.67,0,0,0-2.19,1.66,21.63,21.63,0,0,0-.25,2.41.64.64,0,0,1-.23.44,1.58,1.58,0,0,0-.42,1.15c0,1.32-.6,2.52-.71,3.82,0,.31-.31.56-.32.89a9.31,9.31,0,0,1-.71,3.68.89.89,0,0,0-.08.32c-.18,1.13-.29,2.28-.55,3.39a28.26,28.26,0,0,0-.7,3.16C1628.92,873.22,1628.72,873.4,1627.88,873.4Zm10-46.08a19.15,19.15,0,0,0-2.14.09,21.69,21.69,0,0,0-4.36.66,19.23,19.23,0,0,0-3.46,1.39,11.5,11.5,0,0,0-3.84,3.19,5.22,5.22,0,0,0-1.12,3.49.86.86,0,0,1-.18.75.94.94,0,0,0-.1,1.14,7.15,7.15,0,0,1,.28,1.08,7.15,7.15,0,0,0,.61,2.16c.8,1.24,1.57,2.5,2.46,3.69a18.35,18.35,0,0,0,2.51,2.92A16.21,16.21,0,0,0,1632,850a7.56,7.56,0,0,0,2.91.79,24.48,24.48,0,0,0,3.42.36c.8-.06,1.6-.19,2.41-.21a17.45,17.45,0,0,0,4.64-.71,10.65,10.65,0,0,0,5.51-3.78,23.78,23.78,0,0,0,1.61-2.75,4.9,4.9,0,0,0,.63-3.24c-.09-.76-.2-1.52-.24-2.29a1.94,1.94,0,0,0-.47-1.36,1.35,1.35,0,0,1-.33-.77,5.65,5.65,0,0,0-1.3-2.48,18.45,18.45,0,0,0-2.64-2.74c-.75-.64-1.62-1.06-2.41-1.62a22.19,22.19,0,0,0-3.78-1.59,1.16,1.16,0,0,0-.32-.08A29.85,29.85,0,0,0,1637.9,827.32Zm-12.45-16.44a2.9,2.9,0,0,0-.51,0c-1,.17-1.77.7-1.19,1.89.45.91.76,1.87,1.2,2.79.7,1.47,1.36,3,2,4.45.83,1.86,1.75,3.67,2.47,5.57a1.23,1.23,0,0,1-.73,1.74,1.07,1.07,0,0,0-.53.32c-.12.18-.1.37.14.35a2.88,2.88,0,0,0,1.72-.41,1.27,1.27,0,0,1,.54-.28,11.48,11.48,0,0,1,2.33-.33,3.84,3.84,0,0,0,1.71-.3,3.93,3.93,0,0,1,1.57-.37,18,18,0,0,1,6.29.67,11.24,11.24,0,0,1,4.3,1.78c.85.63,1.69,1.28,2.49,2a14.4,14.4,0,0,1,1.5,1.34c.36.4.59.93,1,1.22a2,2,0,0,1,.76,1.08c.07.19.13.4.33.41a.46.46,0,0,0,.45-.44c0-.51.37-.68.74-.89.9-.53,1.93-.78,2.81-1.32a17,17,0,0,1,2.27-1.11c2.26-1,4.5-2,6.72-3,1.23-.58,2.5-1,3.72-1.63.42-.21.83-.44,1.23-.68.23-.12.51-.38.39-.62s-.21-.64-.35-.94a1.72,1.72,0,0,0-2.39-.87c-1.64.75-3.3,1.47-5,2.2s-3.09,1.3-4.57,2.09-3.23,1.5-4.83,2.27a13.62,13.62,0,0,1-2,1c-.28.08-.57.19-.8,0a3.92,3.92,0,0,1-1-1.07,1.48,1.48,0,0,0-.77-.71,4.05,4.05,0,0,1-.71-.45c-.52-.37-1-.78-1.57-1.1a19.78,19.78,0,0,0-3.94-1.51,14.61,14.61,0,0,0-4.33-.6c-1.58,0-3.15.14-4.73.13a1.27,1.27,0,0,1-1.3-.85c-.38-.75-.67-1.55-1.06-2.3-.65-1.23-1.11-2.54-1.76-3.77-.47-.92-.75-1.93-1.22-2.83-.61-1.17-1.11-2.39-1.6-3.6A1.79,1.79,0,0,0,1625.45,810.88Zm-.52,43.84a4.69,4.69,0,0,0-.67-1.64,2.39,2.39,0,0,0-2.71-.34,21.73,21.73,0,0,0-2.74,2c-.45.34-.6,1-1.06,1.21a9,9,0,0,0-2.53,2.46c-.37.44-.42,1.17-.72,1.74-.07.12,0,.29.08.43a2.22,2.22,0,0,0,2.4,1.2c.41,0,.88,0,1.23-.32.67-.67,1.38-1.31,2-2,.29-.36.75-.45,1-.82.7-1.08,1.9-1.57,2.77-2.45A3.92,3.92,0,0,0,1624.93,854.72Zm27.43-39.14c0-.39.13-.83-.17-1.15-1.57-1.69-3-1.62-4.1.25-.46.78-1.2,1.48-1.22,2.5,0,.13-.2.28-.34.36a1.29,1.29,0,0,0-.63,1,.91.91,0,0,1-.41.77,1.24,1.24,0,0,0-.6.92,6,6,0,0,0-.12,2.11,1.61,1.61,0,0,0,1.27,1.47,2.22,2.22,0,0,0,2.33-.6,5,5,0,0,0,1.11-2.06,1.11,1.11,0,0,1,.41-.66,1.13,1.13,0,0,0,.42-.6c.23-1,1-1.63,1.5-2.49A3.18,3.18,0,0,0,1652.36,815.58ZM1648.61,866a1.72,1.72,0,0,0,2-1.37,3.57,3.57,0,0,0-.57-2.84c-.3-.61-.49-1.24-.77-1.85-.5-1.07-.79-2.34-2.29-2.61a3.6,3.6,0,0,0-1.48.22,1.62,1.62,0,0,0-1.22,2.13c.17.73.5,1.4.7,2.13a10.59,10.59,0,0,0,1.71,3.19A2.08,2.08,0,0,0,1648.61,866Zm-42-38.46c-1.15-.13-1.29.5-1.17,1.26a1.17,1.17,0,0,0,1,1,9.06,9.06,0,0,1,2,.7,1.85,1.85,0,0,0,.81.23,4.23,4.23,0,0,1,1.5.43,27.07,27.07,0,0,0,3.27,1.17,6.25,6.25,0,0,1,1.54.53,4,4,0,0,0,2.88.51.79.79,0,0,0,.66-.79c.06-.64-.33-1.14-1.27-1.42-2-.59-3.89-1.54-5.91-2.11-1.12-.32-2.2-.76-3.3-1.12A5.33,5.33,0,0,0,1606.6,827.55Zm52.8,13.68c-.07.36.17.59.49.76a2,2,0,0,0,1.15.21,40.12,40.12,0,0,0,4.89-.77,15,15,0,0,1,2.91-.19,12.09,12.09,0,0,0,2.33-.11.9.9,0,0,0,.8-1c-.07-.48-.22-1-.83-1.09a4.3,4.3,0,0,0-.72-.1,30.67,30.67,0,0,0-5.42.24,27.71,27.71,0,0,1-4.17.58A1.84,1.84,0,0,0,1659.4,841.23Z" transform="translate(-182.83 -35)"/><path class="cls-31" d="M1627.88,873.4c.84,0,1-.18,1.13-.9a28.26,28.26,0,0,1,.7-3.16c.26-1.11.37-2.26.55-3.39a.89.89,0,0,1,.08-.32,9.31,9.31,0,0,0,.71-3.68c0-.33.3-.58.32-.89.11-1.3.75-2.5.71-3.82a1.58,1.58,0,0,1,.42-1.15.64.64,0,0,0,.23-.44,21.63,21.63,0,0,1,.25-2.41,1.67,1.67,0,0,1,2.19-1.66c.53.13,1.06.25,1.59.41a1,1,0,0,1,.83,1.32c-.24,1-.18,2-.43,3a.78.78,0,0,1-.09.27c-.8,1-.5,2.28-.7,3.44a5.14,5.14,0,0,1-.64,2.19,1.14,1.14,0,0,0-.26.79,10,10,0,0,1-.77,4.24,5.9,5.9,0,0,0-.28,1.77,3.06,3.06,0,0,1-.67,2.37c-.24.21-.08.58-.14.87a10.1,10.1,0,0,0-.19,1.45c0,1.05.24,1.38,1.28,1.43.82,0,1.65.09,2.48.12,1.16,0,2.32,0,3.49,0a7.48,7.48,0,0,0,3.29-.59,7.35,7.35,0,0,1,2.43-.43c1-.1,1.89-.69,2.89-.72,1.4,0,2.62-.75,4-.94A19.09,19.09,0,0,0,1658,871a2,2,0,0,1,.32-.11,9.41,9.41,0,0,0,3.1-1.51,23.58,23.58,0,0,0,2.66-1.58,18.61,18.61,0,0,0,3.42-3.09.82.82,0,0,0-.18-1.3,10.94,10.94,0,0,1-1.83-1.42,2,2,0,0,0-.52-.33,5.35,5.35,0,0,1-2-1.5c-.39-.46-1-.5-1.45-.95-1.09-1.16-2.54-1.89-3.59-3.08-.46-.52-1.16-.73-1.54-1.31-.68-1-1.88-1.48-2.68-2.42-.64-.75-1.52-1.33-2.25-2a13.54,13.54,0,0,0-1.07-1.22c-.33-.25-.08-.6.09-.85.52-.76.88-1.6,1.87-2a1.41,1.41,0,0,1,1.63.38l3.14,2.93a16.6,16.6,0,0,1,2,1.75c.75,1,1.87,1.53,2.69,2.44a27.88,27.88,0,0,0,2.56,2.11,37,37,0,0,1,3,2.33c.39.42,1,.46,1.45.86a16.35,16.35,0,0,0,2.26,1.68c.41.25.73.28.94-.24a1.37,1.37,0,0,1,.25-.3c.65-.74,1.62-1.17,2.08-2.12.11-.22.49-.33.76-.47s.45-.31.58,0,.16.68-.19.8c-.61.23-.69.67-.66,1.22a.5.5,0,0,1-.38.56.46.46,0,0,0-.35.26,4.91,4.91,0,0,1-1.2,1.91c-.63.7-1.07,1.56-1.78,2.22a5.77,5.77,0,0,0-1,1.35,6.32,6.32,0,0,1-.54.71,16.57,16.57,0,0,1-2.92,2.82,9.81,9.81,0,0,1-2.17,1.49,15.53,15.53,0,0,0-1.51,1c-.86.51-1.75,1-2.56,1.6a13.32,13.32,0,0,1-2.14,1.26,13.46,13.46,0,0,1-2.09,1,5.19,5.19,0,0,0-1.81.73,1.51,1.51,0,0,1-.63.24,4.35,4.35,0,0,0-1.84.66,2.88,2.88,0,0,1-1.25.23,3.3,3.3,0,0,0-1.74.56,2,2,0,0,1-1,.22c-.82.12-1.65.19-2.47.23a1.81,1.81,0,0,0-1.09.39,1.26,1.26,0,0,1-1.06.3,9.28,9.28,0,0,0-1.9,0c-1.74.05-3.48,0-5.22,0a.77.77,0,0,1-.49-.08,5.22,5.22,0,0,0-2.92-.69,19.63,19.63,0,0,0-2.87-.13c-.08,0-.18,0-.22,0-1-1-2.45-.45-3.58-.91a8.72,8.72,0,0,1-2.64-1.18,2.57,2.57,0,0,0-1.3-.47c-.21,0-.45-.07-.55-.25a1.19,1.19,0,0,0-1-.58,1.46,1.46,0,0,1-1-.57.6.6,0,0,0-.39-.21,2,2,0,0,1-1.09-.56,1.16,1.16,0,0,0-.68-.36,1.51,1.51,0,0,1-.93-.55,6.66,6.66,0,0,0-1.5-1.06,5.53,5.53,0,0,1-1-.72,1.05,1.05,0,0,0-.89-.38.39.39,0,0,1-.35-.17,31.57,31.57,0,0,0-2.64-2.4c-.6-.57-1.25-1.08-1.83-1.68a20.74,20.74,0,0,1-2.64-3.13,4.46,4.46,0,0,0-.9-.89c-.73-.67-.88-1.71-1.66-2.3-.06-.05-.13-.12-.13-.19,0-1.11-.89-1.83-1.34-2.73a9.24,9.24,0,0,0-1.44-2.32c-.43-.45-.29-1.1-.45-1.65a2.22,2.22,0,0,0-.25-.68,5.26,5.26,0,0,1-.79-2.66,19.62,19.62,0,0,0-.73-3.8,2.12,2.12,0,0,1,0-1.17c.17-.67.45-1.32,0-2a.51.51,0,0,1,.26-.72c.24-.1.48.21.45.44-.13,1.11.48,2,.75,3a23.17,23.17,0,0,1,.4,2.72,2.1,2.1,0,0,0,.4,1,3.28,3.28,0,0,1,.62,1.49,1.3,1.3,0,0,0,1.67.94,33.89,33.89,0,0,1,3.54-1.27c.19,0,.35-.21.54-.29,1.13-.44,2.22-1,3.36-1.42.89-.33,1.72-.82,2.58-1.2s2-.87,3-1.28a7.12,7.12,0,0,0,.93-.42,2.53,2.53,0,0,1,1.19-.5,1.07,1.07,0,0,0,.61-.26c.13-.11.26-.27.41-.3a20,20,0,0,0,2.81-1.21,1.87,1.87,0,0,0,.68-.37,1.36,1.36,0,0,1,2.18.18,10.82,10.82,0,0,1,1.07,1.51,1.1,1.1,0,0,1-.6,1.71c-1,.45-2,.94-3,1.41s-1.77.88-2.68,1.27-2.09.81-3.08,1.34A13.75,13.75,0,0,1,1613,852a3.89,3.89,0,0,0-1.09.46,3.34,3.34,0,0,1-1.3.51,1.94,1.94,0,0,0-1.07.46,1.41,1.41,0,0,1-1.06.31,1.15,1.15,0,0,0-1,.42c-.1.11-.22.25-.35.27a13.37,13.37,0,0,0-2.45,1.07c-.64.22-.78.6-.44,1.19.59,1,1.32,1.9,2,2.85.48.68,1.22,1.18,1.49,2,.09.3.41.37.61.57.65.62,1.34,1.2,2,1.86s1.25.81,1.69,1.38c.79,1,2,1.45,2.92,2.37a5.3,5.3,0,0,0,1.52,1c1.37.67,2.71,1.43,4,2.19a19,19,0,0,0,3.49,1.38C1625.19,872.73,1626.49,873.49,1627.88,873.4Z" transform="translate(-182.83 -35)"/><path class="cls-31" d="M1625.45,810.88a1.79,1.79,0,0,1,1.87,1.19c.49,1.21,1,2.43,1.6,3.6.47.9.75,1.91,1.22,2.83.65,1.23,1.11,2.54,1.76,3.77.39.75.68,1.55,1.06,2.3a1.27,1.27,0,0,0,1.3.85c1.58,0,3.15-.14,4.73-.13a14.61,14.61,0,0,1,4.33.6,19.78,19.78,0,0,1,3.94,1.51c.55.32,1,.73,1.57,1.1a4.05,4.05,0,0,0,.71.45,1.48,1.48,0,0,1,.77.71,3.92,3.92,0,0,0,1,1.07c.23.22.52.11.8,0a13.62,13.62,0,0,0,2-1c1.6-.77,3.26-1.43,4.83-2.27s3-1.4,4.57-2.09,3.31-1.45,5-2.2a1.72,1.72,0,0,1,2.39.87c.14.3.19.63.35.94s-.16.5-.39.62c-.4.24-.81.47-1.23.68-1.22.6-2.49,1-3.72,1.63-2.22,1-4.46,2.06-6.72,3a17,17,0,0,0-2.27,1.11c-.88.54-1.91.79-2.81,1.32-.37.21-.72.38-.74.89a.46.46,0,0,1-.45.44c-.2,0-.26-.22-.33-.41a2,2,0,0,0-.76-1.08c-.46-.29-.69-.82-1-1.22a14.4,14.4,0,0,0-1.5-1.34c-.8-.68-1.64-1.33-2.49-2a11.24,11.24,0,0,0-4.3-1.78,18,18,0,0,0-6.29-.67,3.93,3.93,0,0,0-1.57.37,3.84,3.84,0,0,1-1.71.3,11.48,11.48,0,0,0-2.33.33,1.27,1.27,0,0,0-.54.28,2.88,2.88,0,0,1-1.72.41c-.24,0-.26-.17-.14-.35a1.07,1.07,0,0,1,.53-.32,1.23,1.23,0,0,0,.73-1.74c-.72-1.9-1.64-3.71-2.47-5.57-.66-1.49-1.32-3-2-4.45-.44-.92-.75-1.88-1.2-2.79-.58-1.19.14-1.72,1.19-1.89A2.9,2.9,0,0,1,1625.45,810.88Z" transform="translate(-182.83 -35)"/><path class="cls-31" d="M1624.93,854.72a3.92,3.92,0,0,1-1,1.39c-.87.88-2.07,1.37-2.77,2.45-.24.37-.7.46-1,.82-.6.73-1.31,1.37-2,2-.35.34-.82.27-1.23.32a2.22,2.22,0,0,1-2.4-1.2c-.06-.14-.15-.31-.08-.43.3-.57.35-1.3.72-1.74a9,9,0,0,1,2.53-2.46c.46-.24.61-.87,1.06-1.21a21.73,21.73,0,0,1,2.74-2,2.39,2.39,0,0,1,2.71.34A4.69,4.69,0,0,1,1624.93,854.72Z" transform="translate(-182.83 -35)"/><path class="cls-31" d="M1652.36,815.58a3.18,3.18,0,0,1-.55,1.77c-.46.86-1.27,1.5-1.5,2.49a1.13,1.13,0,0,1-.42.6,1.11,1.11,0,0,0-.41.66,5,5,0,0,1-1.11,2.06,2.22,2.22,0,0,1-2.33.6,1.61,1.61,0,0,1-1.27-1.47,6,6,0,0,1,.12-2.11,1.24,1.24,0,0,1,.6-.92.91.91,0,0,0,.41-.77,1.29,1.29,0,0,1,.63-1c.14-.08.34-.23.34-.36,0-1,.76-1.72,1.22-2.5,1.13-1.87,2.53-1.94,4.1-.25C1652.49,814.75,1652.33,815.19,1652.36,815.58Z" transform="translate(-182.83 -35)"/><path class="cls-31" d="M1648.61,866a2.08,2.08,0,0,1-1.92-1,10.59,10.59,0,0,1-1.71-3.19c-.2-.73-.53-1.4-.7-2.13a1.62,1.62,0,0,1,1.22-2.13,3.6,3.6,0,0,1,1.48-.22c1.5.27,1.79,1.54,2.29,2.61.28.61.47,1.24.77,1.85a3.57,3.57,0,0,1,.57,2.84A1.72,1.72,0,0,1,1648.61,866Z" transform="translate(-182.83 -35)"/><path class="cls-31" d="M1606.6,827.55a5.33,5.33,0,0,1,1.94.39c1.1.36,2.18.8,3.3,1.12,2,.57,3.9,1.52,5.91,2.11.94.28,1.33.78,1.27,1.42a.79.79,0,0,1-.66.79,4,4,0,0,1-2.88-.51,6.25,6.25,0,0,0-1.54-.53,27.07,27.07,0,0,1-3.27-1.17,4.23,4.23,0,0,0-1.5-.43,1.85,1.85,0,0,1-.81-.23,9.06,9.06,0,0,0-2-.7,1.17,1.17,0,0,1-1-1C1605.31,828.05,1605.45,827.42,1606.6,827.55Z" transform="translate(-182.83 -35)"/><path class="cls-31" d="M1659.4,841.23a1.84,1.84,0,0,1,1.43-1.52,27.71,27.71,0,0,0,4.17-.58,30.67,30.67,0,0,1,5.42-.24,4.3,4.3,0,0,1,.72.1c.61.12.76.61.83,1.09a.9.9,0,0,1-.8,1,12.09,12.09,0,0,1-2.33.11,15,15,0,0,0-2.91.19,40.12,40.12,0,0,1-4.89.77,2,2,0,0,1-1.15-.21C1659.57,841.82,1659.33,841.59,1659.4,841.23Z" transform="translate(-182.83 -35)"/><path class="cls-32" d="M361,284a17.57,17.57,0,0,1,2.75,2.77.64.64,0,0,0,.16.49,37.42,37.42,0,0,1,7,12.28,37.66,37.66,0,0,1,1.8,11.69c0,.86-.25,1.68-.22,2.53a18.84,18.84,0,0,1-.42,4.1,39.08,39.08,0,0,1-7.17,16.28c-.15.2-.33.38-.29.66l-.12.17a.91.91,0,0,0-.74.88l-.14.18a10.81,10.81,0,0,0-2.11,2c-.08.09-.06.27-.09.4a.75.75,0,0,1-.41.41c-.32-.05-.52.16-.72.36a16.06,16.06,0,0,1-2,1.83,1,1,0,0,0-.5.65l-.17.14c-.46.12-.85.15-1.15-.36a6.3,6.3,0,0,0-.8-.84,3.29,3.29,0,0,0-4.11-.44,3.5,3.5,0,0,0-1.86,3.14,5.51,5.51,0,0,0,.23,1.89c.32.9.29.91-.59,1.36a23.67,23.67,0,0,1-2.43,1A39.23,39.23,0,0,1,336,350.06a35.05,35.05,0,0,1-6.79-.09c-2.11-.24-4.16-.75-6.23-1.13a31.49,31.49,0,0,1-3.62-1.23,32.69,32.69,0,0,1-5.08-2.39,15.12,15.12,0,0,0-2.68-1.46.19.19,0,0,1-.15-.11.54.54,0,0,0-.23-.34,27.7,27.7,0,0,1-3.08-2.54.71.71,0,0,0-.57-.22,11.83,11.83,0,0,1-1.92-1.89,6.7,6.7,0,0,0-2.22-2.62.19.19,0,0,1-.12-.16.38.38,0,0,0-.35-.48.52.52,0,0,1-.29-.38.82.82,0,0,0-.2-.58A36.36,36.36,0,0,1,299,328a33.78,33.78,0,0,1-2.35-8.21.56.56,0,0,1,.4-.19,3.86,3.86,0,0,0,2.51-1.81,5.72,5.72,0,0,0,.85-3.23,4.38,4.38,0,0,0-3.25-4.45c-.85-.27-.95-.38-.78-1.27.35-1.8.63-3.63,1.14-5.38a40.25,40.25,0,0,1,4.25-9.72,6.05,6.05,0,0,0,1.16-2.11.51.51,0,0,1,.27-.37.38.38,0,0,0,.36-.51.13.13,0,0,1,.09-.13.59.59,0,0,0,.55-.73l.28-.34a.38.38,0,0,0,.38-.47,2.42,2.42,0,0,1,.68-.81,1.23,1.23,0,0,0,1-1.11,10.34,10.34,0,0,1,2.12-2.11.6.6,0,0,0,.68-.61,3.31,3.31,0,0,1,1-.89c.29,0,.45-.08.48-.37a1.47,1.47,0,0,1,.6-.48c.27,0,.44-.07.47-.36a.12.12,0,0,1,.12-.09c.3.05.49-.06.51-.38a.49.49,0,0,1,.37-.25c.27,0,.45,0,.49-.34a.16.16,0,0,1,.15-.09c.27,0,.45,0,.49-.34a.15.15,0,0,1,.14-.09c.43,0,.81-.08.93-.57a.11.11,0,0,1,.13-.07c.27.05.46,0,.51-.32a3.73,3.73,0,0,1,1.4-.75,15.62,15.62,0,0,0,3.68-1.66s0-.06,0-.09a.75.75,0,0,1,.53-.18,7.64,7.64,0,0,0,3.1-1.1,2.59,2.59,0,0,1,1.06-.3c.21.26.33.12.43-.1l.43-.09c.22.24.33.08.43-.13l.42-.09c.73.33,1.41-.11,2.1-.2.35,0,.88.15,1.1-.37a2.36,2.36,0,0,1,1.26-.11c.29.28.51.26.66-.14a3,3,0,0,1,1.27,0,.7.7,0,0,0,.59.17h3.5a.69.69,0,0,0,.58-.18,1.69,1.69,0,0,1,1.06.12c.26.38.55.35.87.07a1.24,1.24,0,0,1,.63.06c.21.5.52.41.86.15l.42.06c.2.5.51.41.86.17l.41.07c.2.45.51.4.85.19a.59.59,0,0,1,.43.09c.12.26.33.28.57.19l.29,0a18.37,18.37,0,0,0,4.38,1.47,1.91,1.91,0,0,1,1,.36,1.43,1.43,0,0,0,1.42.68,2.71,2.71,0,0,1,1.14.56,1.47,1.47,0,0,0,1.37.76.94.94,0,0,1,.55.32c.05.29.23.37.5.32a.13.13,0,0,1,.14.08c.05.31.24.4.53.34a1.57,1.57,0,0,1,.75.52.38.38,0,0,0,.49.35.51.51,0,0,1,.37.25c0,.32.2.43.5.38a.49.49,0,0,1,.35.27.38.38,0,0,0,.47.39,3.19,3.19,0,0,1,1,.87A.38.38,0,0,0,361,284Zm-44.15,25.18a4.34,4.34,0,0,0,4.41-4.22,3.68,3.68,0,0,0-3.86-3.89,4.2,4.2,0,0,0-4.21,4.27A3.68,3.68,0,0,0,316.83,309.19ZM326,333.68a2.9,2.9,0,0,0-4.17-2.9,4.45,4.45,0,0,0-2.63,4.74,2.74,2.74,0,0,0,3.26,2.13,4.41,4.41,0,0,0,2.49-1.47A3.1,3.1,0,0,0,326,333.68Zm16.66-9.13a4.73,4.73,0,0,0,.53,0,2.3,2.3,0,0,0,2.13-1.31,2.62,2.62,0,0,0-.08-2.7,3,3,0,0,0-3.51-.94,2.52,2.52,0,0,0-1.61,1.59C339.62,323.25,341,324.74,342.63,324.55Zm-21.86-39a2.13,2.13,0,0,0-2.14,1.11,3.31,3.31,0,0,0-.48,2.64,2.38,2.38,0,0,0,2.41,1.82,3.11,3.11,0,0,0,2.64-3.18A2.18,2.18,0,0,0,320.77,285.51Zm41.05,29.23a2.59,2.59,0,0,0,2.92-2.41,2.63,2.63,0,0,0-2.76-2.5,2.72,2.72,0,0,0-2.74,2.55A2.4,2.4,0,0,0,361.82,314.74ZM348.63,306c-.24,0-.45,0-.66,0a2.65,2.65,0,0,0-2,1.73,2,2,0,0,0,1.23,2.31,3.26,3.26,0,0,0,1.87.2,2.67,2.67,0,0,0,1.79-1.63,2.1,2.1,0,0,0-.89-2.31A2.16,2.16,0,0,0,348.63,306Zm-8.37-25.77a1.78,1.78,0,0,0-1-1.69,3,3,0,0,0-3.4,1.85,1.52,1.52,0,0,0,.3,1.3,2.07,2.07,0,0,0,2.46.73A2.18,2.18,0,0,0,340.26,280.22Zm-10.88,48.2c0,1.16.45,1.65,1.55,1.67a1.9,1.9,0,0,0,1.87-2,1.65,1.65,0,0,0-1.45-1.86A2.05,2.05,0,0,0,329.38,328.42Zm23.29-33.09c1.05,0,1.6-.45,1.68-1.32s-.67-1.56-1.78-1.65a1.6,1.6,0,0,0-1.63,1.47A1.66,1.66,0,0,0,352.67,295.33Zm-27.34,50.11a1.17,1.17,0,1,0-1,1.06A.93.93,0,0,0,325.33,345.44Zm12.14-4.83c0-.31-.53-.86-.89-.89a.86.86,0,0,0-.78.73.88.88,0,0,0,.81.93A.89.89,0,0,0,337.47,340.61Zm1.8-50.82a.91.91,0,0,0-.9.72c0,.4.48.78,1,.76a.63.63,0,0,0,.7-.72C340.05,290,339.81,289.77,339.27,289.79ZM305.49,312a.89.89,0,0,0-.81.68.85.85,0,0,0,.83.78.88.88,0,0,0,.81-.69A.84.84,0,0,0,305.49,312Zm61.82-6.24a.88.88,0,0,0-.84-.81c-.37,0-.72,0-.8.49s.59,1,.95,1A.8.8,0,0,0,367.31,305.74Zm-59.05-9.56c0-.43-.28-.65-.78-.64s-.67.19-.68.63a.84.84,0,0,0,.77.83A.9.9,0,0,0,308.26,296.18Zm47.21,35.15a.84.84,0,0,0,.77-.73c.05-.43-.21-.71-.69-.72s-.7.1-.77.54A.87.87,0,0,0,355.47,331.33Zm-28.22-30.91c0-.53-.18-.8-.62-.81a.84.84,0,0,0-.84.77.9.9,0,0,0,.82.69A.59.59,0,0,0,327.25,300.42Zm-9,17.52a.87.87,0,0,0-.67-.82.82.82,0,0,0-.79.81c0,.44.26.62.67.64S318.28,318.37,318.28,317.94Zm16.29-1.06a.75.75,0,0,0-.7.79.61.61,0,0,0,.64.68.74.74,0,1,0,.06-1.47ZM327,280.23a.82.82,0,0,0-.72-.65c-.36,0-.6.39-.52.87s.23.63.62.54A.76.76,0,0,0,327,280.23ZM309.32,326.6a.55.55,0,0,0-.59-.55.59.59,0,0,0-.66.65.57.57,0,0,0,.6.6A.6.6,0,0,0,309.32,326.6Zm28.83-23.39a.56.56,0,0,0,.6-.55.59.59,0,0,0-.59-.71.58.58,0,0,0-.66.55A.61.61,0,0,0,338.15,303.21Zm14.26-18.1a.62.62,0,0,0-.71-.65.57.57,0,0,0-.55.65.59.59,0,0,0,.7.6A.57.57,0,0,0,352.41,285.11Z" transform="translate(-182.83 -35)"/><path class="cls-33" d="M302.92,291.66a6.05,6.05,0,0,1-1.16,2.11,40.25,40.25,0,0,0-4.25,9.72c-.51,1.75-.79,3.58-1.14,5.38-.17.89-.07,1,.78,1.27a4.38,4.38,0,0,1,3.25,4.45,5.72,5.72,0,0,1-.85,3.23,3.86,3.86,0,0,1-2.51,1.81.56.56,0,0,0-.4.19A33.78,33.78,0,0,0,299,328a36.36,36.36,0,0,0,3.52,6.41.82.82,0,0,1,.2.58c-.4-.16-.54-.55-.75-.87a36.87,36.87,0,0,1-5.51-13.37,36.19,36.19,0,0,1-.57-9.84,37.6,37.6,0,0,1,5-16.32c.48-.83,1-1.63,1.5-2.45C302.54,292,302.66,291.74,302.92,291.66Z" transform="translate(-182.83 -35)"/><path class="cls-33" d="M311.64,343.76a15.12,15.12,0,0,1,2.68,1.46,32.69,32.69,0,0,0,5.08,2.39,31.49,31.49,0,0,0,3.62,1.23c2.07.38,4.12.89,6.23,1.13a35.05,35.05,0,0,0,6.79.09,39.23,39.23,0,0,0,10.81-2.44,23.67,23.67,0,0,0,2.43-1c.88-.45.91-.46.59-1.36a5.51,5.51,0,0,1-.23-1.89,3.5,3.5,0,0,1,1.86-3.14,3.29,3.29,0,0,1,4.11.44,6.3,6.3,0,0,1,.8.84c.3.51.69.48,1.15.36-.61.91-1.66,1.29-2.43,2a14.08,14.08,0,0,1-4.22,2.42c-1.76.75-3.5,1.54-5.32,2.14a45.22,45.22,0,0,1-8.61,1.84,36.21,36.21,0,0,1-6.58.12,37.19,37.19,0,0,1-12.44-3,39.69,39.69,0,0,1-5.71-3.07C312,344.17,311.74,344.06,311.64,343.76Z" transform="translate(-182.83 -35)"/><path class="cls-33" d="M364.59,334.81c0-.28.14-.46.29-.66a39.08,39.08,0,0,0,7.17-16.28,18.84,18.84,0,0,0,.42-4.1c0-.85.23-1.67.22-2.53a37.66,37.66,0,0,0-1.8-11.69,37.42,37.42,0,0,0-7-12.28.64.64,0,0,1-.16-.49,6.6,6.6,0,0,1,1.71,1.86,35.94,35.94,0,0,1,7.35,18.45,37.66,37.66,0,0,1-1.62,15.56,40.17,40.17,0,0,1-5.85,11.41C365.12,334.35,365,334.68,364.59,334.81Z" transform="translate(-182.83 -35)"/><path class="cls-33" d="M307.61,340.55a.71.71,0,0,1,.57.22,27.7,27.7,0,0,0,3.08,2.54.54.54,0,0,1,.23.34,2.78,2.78,0,0,1-1.33-.81A11.11,11.11,0,0,1,307.61,340.55Z" transform="translate(-182.83 -35)"/><path class="cls-33" d="M338.33,274.47a.69.69,0,0,1-.58.18h-3.5a.7.7,0,0,1-.59-.17c.53-.34,1.1-.12,1.65-.12A11.77,11.77,0,0,1,338.33,274.47Z" transform="translate(-182.83 -35)"/><path class="cls-33" d="M357.73,341.69a1,1,0,0,1,.5-.65,16.06,16.06,0,0,0,2-1.83c.2-.2.4-.41.72-.36A10.93,10.93,0,0,1,357.73,341.69Z" transform="translate(-182.83 -35)"/><path class="cls-33" d="M350,277.15a18.37,18.37,0,0,1-4.38-1.47A12.75,12.75,0,0,1,350,277.15Z" transform="translate(-182.83 -35)"/><path class="cls-33" d="M320.87,277.33s0,.08,0,.09a15.62,15.62,0,0,1-3.68,1.66A10.77,10.77,0,0,1,320.87,277.33Z" transform="translate(-182.83 -35)"/><path class="cls-33" d="M303.47,336a6.7,6.7,0,0,1,2.22,2.62A8.13,8.13,0,0,1,303.47,336Z" transform="translate(-182.83 -35)"/><path class="cls-33" d="M361.39,338.44c0-.13,0-.31.09-.4a10.81,10.81,0,0,1,2.11-2A7.23,7.23,0,0,1,361.39,338.44Z" transform="translate(-182.83 -35)"/><path class="cls-33" d="M330.47,274.77c-.22.52-.75.33-1.1.37-.69.09-1.37.53-2.1.2A9.19,9.19,0,0,1,330.47,274.77Z" transform="translate(-182.83 -35)"/><path class="cls-33" d="M324.5,276.05a7.64,7.64,0,0,1-3.1,1.1A8,8,0,0,1,324.5,276.05Z" transform="translate(-182.83 -35)"/><path class="cls-33" d="M306.55,287.19a1.23,1.23,0,0,1-1,1.11A2,2,0,0,1,306.55,287.19Z" transform="translate(-182.83 -35)"/><path class="cls-33" d="M352.33,278.19a1.43,1.43,0,0,1-1.42-.68A2.27,2.27,0,0,1,352.33,278.19Z" transform="translate(-182.83 -35)"/><path class="cls-33" d="M354.84,279.51a1.47,1.47,0,0,1-1.37-.76A2.44,2.44,0,0,1,354.84,279.51Z" transform="translate(-182.83 -35)"/><path class="cls-33" d="M363.73,335.86a.91.91,0,0,1,.74-.88A1.2,1.2,0,0,1,363.73,335.86Z" transform="translate(-182.83 -35)"/><path class="cls-33" d="M341.75,274.87c-.34.26-.65.35-.86-.15A1.13,1.13,0,0,1,341.75,274.87Z" transform="translate(-182.83 -35)"/><path class="cls-33" d="M315.11,280.22c-.12.49-.5.57-.93.57A1.3,1.3,0,0,1,315.11,280.22Z" transform="translate(-182.83 -35)"/><path class="cls-33" d="M340.26,274.66c-.32.28-.61.31-.87-.07A1.06,1.06,0,0,1,340.26,274.66Z" transform="translate(-182.83 -35)"/><path class="cls-33" d="M344.29,275.36c-.34.21-.65.26-.85-.19A.77.77,0,0,1,344.29,275.36Z" transform="translate(-182.83 -35)"/><path class="cls-33" d="M343,275.1c-.35.24-.66.33-.86-.17A1,1,0,0,1,343,275.1Z" transform="translate(-182.83 -35)"/><path class="cls-33" d="M304.19,289.92a.59.59,0,0,1-.55.73A.89.89,0,0,1,304.19,289.92Z" transform="translate(-182.83 -35)"/><path class="cls-33" d="M309.35,284.47a.6.6,0,0,1-.68.61A.81.81,0,0,1,309.35,284.47Z" transform="translate(-182.83 -35)"/><path class="cls-33" d="M332.39,274.52c-.15.4-.37.42-.66.14A.6.6,0,0,1,332.39,274.52Z" transform="translate(-182.83 -35)"/><path class="cls-33" d="M357.8,281.44a.38.38,0,0,1-.49-.35A.48.48,0,0,1,357.8,281.44Z" transform="translate(-182.83 -35)"/><path class="cls-33" d="M314,280.88c0,.3-.22.39-.49.34A.53.53,0,0,1,314,280.88Z" transform="translate(-182.83 -35)"/><path class="cls-33" d="M303,335.4a.38.38,0,0,1,.35.48A.46.46,0,0,1,303,335.4Z" transform="translate(-182.83 -35)"/><path class="cls-33" d="M356.56,280.57c-.29.06-.48,0-.53-.34A.57.57,0,0,1,356.56,280.57Z" transform="translate(-182.83 -35)"/><path class="cls-33" d="M355.89,280.15c-.27.05-.45,0-.5-.32A.47.47,0,0,1,355.89,280.15Z" transform="translate(-182.83 -35)"/><path class="cls-33" d="M315.75,279.83c-.05.29-.24.37-.51.32A.5.5,0,0,1,315.75,279.83Z" transform="translate(-182.83 -35)"/><path class="cls-33" d="M313.4,281.31c0,.29-.22.38-.49.34A.5.5,0,0,1,313.4,281.31Z" transform="translate(-182.83 -35)"/><path class="cls-33" d="M358.67,282.07c-.3.05-.48-.06-.5-.38A.56.56,0,0,1,358.67,282.07Z" transform="translate(-182.83 -35)"/><path class="cls-33" d="M312.54,281.9c0,.32-.21.43-.51.38A.56.56,0,0,1,312.54,281.9Z" transform="translate(-182.83 -35)"/><path class="cls-33" d="M311.91,282.37c0,.29-.2.39-.47.36A.47.47,0,0,1,311.91,282.37Z" transform="translate(-182.83 -35)"/><path class="cls-33" d="M359.49,282.73a.38.38,0,0,1-.47-.39A.49.49,0,0,1,359.49,282.73Z" transform="translate(-182.83 -35)"/><path class="cls-33" d="M310.84,283.21c0,.29-.19.4-.48.37A.5.5,0,0,1,310.84,283.21Z" transform="translate(-182.83 -35)"/><path class="cls-33" d="M326.85,275.43c-.1.21-.21.37-.43.13A.29.29,0,0,1,326.85,275.43Z" transform="translate(-182.83 -35)"/><path class="cls-33" d="M361,284a.38.38,0,0,1-.46-.41A.5.5,0,0,1,361,284Z" transform="translate(-182.83 -35)"/><path class="cls-33" d="M345.29,275.64c-.24.09-.45.07-.57-.19A.45.45,0,0,1,345.29,275.64Z" transform="translate(-182.83 -35)"/><path class="cls-33" d="M326,275.65c-.1.22-.22.36-.43.1A.32.32,0,0,1,326,275.65Z" transform="translate(-182.83 -35)"/><path class="cls-33" d="M303.55,290.78a.38.38,0,0,1-.36.51A.52.52,0,0,1,303.55,290.78Z" transform="translate(-182.83 -35)"/><path class="cls-33" d="M304.85,289.11a.38.38,0,0,1-.38.47A.47.47,0,0,1,304.85,289.11Z" transform="translate(-182.83 -35)"/><path class="cls-33" d="M316.83,309.19a3.68,3.68,0,0,1-3.66-3.84,4.2,4.2,0,0,1,4.21-4.27,3.68,3.68,0,0,1,3.86,3.89A4.34,4.34,0,0,1,316.83,309.19Z" transform="translate(-182.83 -35)"/><path class="cls-33" d="M326,333.68a3.1,3.1,0,0,1-1.05,2.5,4.41,4.41,0,0,1-2.49,1.47,2.74,2.74,0,0,1-3.26-2.13,4.45,4.45,0,0,1,2.63-4.74A2.9,2.9,0,0,1,326,333.68Z" transform="translate(-182.83 -35)"/><path class="cls-33" d="M342.63,324.55c-1.67.19-3-1.3-2.54-3.37a2.52,2.52,0,0,1,1.61-1.59,3,3,0,0,1,3.51.94,2.62,2.62,0,0,1,.08,2.7,2.3,2.3,0,0,1-2.13,1.31A4.73,4.73,0,0,1,342.63,324.55Z" transform="translate(-182.83 -35)"/><path class="cls-33" d="M320.77,285.51a2.18,2.18,0,0,1,2.43,2.39,3.11,3.11,0,0,1-2.64,3.18,2.38,2.38,0,0,1-2.41-1.82,3.31,3.31,0,0,1,.48-2.64A2.13,2.13,0,0,1,320.77,285.51Z" transform="translate(-182.83 -35)"/><path class="cls-33" d="M361.82,314.74a2.4,2.4,0,0,1-2.58-2.36,2.72,2.72,0,0,1,2.74-2.55,2.63,2.63,0,0,1,2.76,2.5A2.59,2.59,0,0,1,361.82,314.74Z" transform="translate(-182.83 -35)"/><path class="cls-33" d="M348.63,306a2.16,2.16,0,0,1,1.39.3,2.1,2.1,0,0,1,.89,2.31,2.67,2.67,0,0,1-1.79,1.63,3.26,3.26,0,0,1-1.87-.2,2,2,0,0,1-1.23-2.31,2.65,2.65,0,0,1,2-1.73C348.18,306,348.39,306,348.63,306Z" transform="translate(-182.83 -35)"/><path class="cls-33" d="M340.26,280.22a2.18,2.18,0,0,1-1.67,2.19,2.07,2.07,0,0,1-2.46-.73,1.52,1.52,0,0,1-.3-1.3,3,3,0,0,1,3.4-1.85A1.78,1.78,0,0,1,340.26,280.22Z" transform="translate(-182.83 -35)"/><path class="cls-33" d="M329.38,328.42a2.05,2.05,0,0,1,2-2.18,1.65,1.65,0,0,1,1.45,1.86,1.9,1.9,0,0,1-1.87,2C329.83,330.07,329.37,329.58,329.38,328.42Z" transform="translate(-182.83 -35)"/><path class="cls-33" d="M352.67,295.33a1.66,1.66,0,0,1-1.73-1.5,1.6,1.6,0,0,1,1.63-1.47c1.11.09,1.87.69,1.78,1.65S353.72,295.35,352.67,295.33Z" transform="translate(-182.83 -35)"/><path class="cls-33" d="M325.33,345.44a.93.93,0,0,1-1,1.06,1.17,1.17,0,1,1,1-1.06Z" transform="translate(-182.83 -35)"/><path class="cls-33" d="M337.47,340.61a.89.89,0,0,1-.86.77.88.88,0,0,1-.81-.93.86.86,0,0,1,.78-.73C336.94,339.75,337.5,340.3,337.47,340.61Z" transform="translate(-182.83 -35)"/><path class="cls-33" d="M339.27,289.79c.54,0,.78.22.77.76a.63.63,0,0,1-.7.72c-.49,0-1-.36-1-.76A.91.91,0,0,1,339.27,289.79Z" transform="translate(-182.83 -35)"/><path class="cls-33" d="M305.49,312a.84.84,0,0,1,.83.77.88.88,0,0,1-.81.69.85.85,0,0,1-.83-.78A.89.89,0,0,1,305.49,312Z" transform="translate(-182.83 -35)"/><path class="cls-33" d="M367.31,305.74a.8.8,0,0,1-.69.64c-.36.05-1-.61-.95-1s.43-.51.8-.49A.88.88,0,0,1,367.31,305.74Z" transform="translate(-182.83 -35)"/><path class="cls-33" d="M308.26,296.18a.9.9,0,0,1-.69.82.84.84,0,0,1-.77-.83c0-.44.27-.61.68-.63S308.26,295.75,308.26,296.18Z" transform="translate(-182.83 -35)"/><path class="cls-33" d="M355.47,331.33a.87.87,0,0,1-.69-.91c.07-.44.38-.56.77-.54s.74.29.69.72A.84.84,0,0,1,355.47,331.33Z" transform="translate(-182.83 -35)"/><path class="cls-33" d="M327.25,300.42a.59.59,0,0,1-.64.65.9.9,0,0,1-.82-.69.84.84,0,0,1,.84-.77C327.07,299.62,327.24,299.89,327.25,300.42Z" transform="translate(-182.83 -35)"/><path class="cls-33" d="M318.28,317.94c0,.43-.29.65-.79.63s-.66-.2-.67-.64a.82.82,0,0,1,.79-.81A.87.87,0,0,1,318.28,317.94Z" transform="translate(-182.83 -35)"/><path class="cls-33" d="M334.57,316.88a.74.74,0,1,1-.06,1.47.61.61,0,0,1-.64-.68A.75.75,0,0,1,334.57,316.88Z" transform="translate(-182.83 -35)"/><path class="cls-33" d="M327,280.23a.76.76,0,0,1-.62.76c-.39.09-.57-.18-.62-.54s.16-.89.52-.87A.82.82,0,0,1,327,280.23Z" transform="translate(-182.83 -35)"/><path class="cls-33" d="M309.32,326.6a.6.6,0,0,1-.65.7.57.57,0,0,1-.6-.6.59.59,0,0,1,.66-.65A.55.55,0,0,1,309.32,326.6Z" transform="translate(-182.83 -35)"/><path class="cls-33" d="M338.15,303.21a.61.61,0,0,1-.65-.71.58.58,0,0,1,.66-.55.59.59,0,0,1,.59.71A.56.56,0,0,1,338.15,303.21Z" transform="translate(-182.83 -35)"/><path class="cls-33" d="M352.41,285.11a.57.57,0,0,1-.56.6.59.59,0,0,1-.7-.6.57.57,0,0,1,.55-.65A.62.62,0,0,1,352.41,285.11Z" transform="translate(-182.83 -35)"/><path class="cls-34" d="M926,866.48a26.42,26.42,0,0,1,.09-3.56,4.79,4.79,0,0,1,.78-2.51,3.85,3.85,0,0,1,1.63-1.12c.19-.08.4-.12.43-.37s-.2-.32-.38-.4a4.63,4.63,0,0,1-1.82-1.43,6.24,6.24,0,0,1-.8-1.69,12.41,12.41,0,0,1-.31-3.78,2,2,0,0,1,.22-1.18,1.32,1.32,0,0,0,.12-.76c0-.75,0-1.51,0-2.26a3.72,3.72,0,0,1,.34-1.86,1.21,1.21,0,0,0,.08-.34,17.38,17.38,0,0,1,1.54-5.15,16.06,16.06,0,0,1,2.66-3.89,27.93,27.93,0,0,1,5.24-4.4c.66-.47,1.25-1,1.95-1.43a30.92,30.92,0,0,1,4.22-2c1.06-.45,2.16-.81,3.23-1.25a18.12,18.12,0,0,1,2.8-.86,8.36,8.36,0,0,0,3.48-1.84,3.51,3.51,0,0,0,.68-1.09,11.57,11.57,0,0,1,3.06-3.29,41.34,41.34,0,0,1,8.27-5.22,25.13,25.13,0,0,1,4.62-1.64,26.59,26.59,0,0,1,9.32-.53,20.47,20.47,0,0,1,5,1.19c1.74.61,3.49,1.18,5.18,1.89a12.46,12.46,0,0,1,5.53,4.46,4.69,4.69,0,0,1,1.13,3,.19.19,0,0,0,0,.08c.72,1.65.3,3.38.37,5.06s.52,2.3,2.14,2.81c1.34.44,2.72.75,4.07,1.14a45.84,45.84,0,0,1,7,2.45,13.11,13.11,0,0,1,5.23,4.18,9.91,9.91,0,0,1,1.5,3.34A8.54,8.54,0,0,1,1015,845a12.2,12.2,0,0,1-1,3.91,16.44,16.44,0,0,1-3.16,4.19,22.1,22.1,0,0,0-1.48,2,1,1,0,0,0-.1.24c-.27,1.67-.76,3.29-.9,5a17.25,17.25,0,0,1-.6,2.87c-.19.74-.47,1.46-.64,2.22a11.14,11.14,0,0,1-.87,2.4,51.1,51.1,0,0,1-2.81,5.52,14.38,14.38,0,0,1-2.14,2.6c-.42.4-.85.8-1.24,1.22a15.57,15.57,0,0,1-4.36,3.11,27.62,27.62,0,0,1-4.33,2c-.53.17-1.07.28-1.59.42a18.37,18.37,0,0,1-6.17.69,23.77,23.77,0,0,1-3.74-.73A22.88,22.88,0,0,1,975.5,881c-1-.47-2-.85-2.94-1.27a1,1,0,0,0-1,.12,16.67,16.67,0,0,0-2.87,2.37,16.75,16.75,0,0,1-3.89,2.89,34.76,34.76,0,0,1-5.74,2.83,37.72,37.72,0,0,1-3.9,1.12,18.66,18.66,0,0,1-2.59.57c-.72.08-1.43.21-2.16.23-.92,0-1.85.09-2.78.09-1.21,0-2.44,0-3.65-.12a7.31,7.31,0,0,1-2.41-.61,11.59,11.59,0,0,0-1.59-.42,21.27,21.27,0,0,1-6.75-3.41,13,13,0,0,1-3.46-4.27c-.5-.87-1-1.76-1.41-2.66a16,16,0,0,1-.75-1.81,15.69,15.69,0,0,0-.58-1.88,8,8,0,0,1-.47-1.83A13.61,13.61,0,0,1,926,869C926,868.17,926,867.33,926,866.48Zm55.93,7.6a17.3,17.3,0,0,0,3.28-.28c1.07-.23,2.13-.46,3.18-.75.48-.14.89-.4,1.35-.57a6.14,6.14,0,0,0,3-2.09c1-1.45,2.16-2.86,3.21-4.31a24.06,24.06,0,0,0,2.46-4.26c.55-1.22,1.09-2.45,1.73-3.63a19,19,0,0,0,1.23-3.28c.23-.72.33-1.46.55-2.17a5.25,5.25,0,0,0,.25-1.61c0-.64,0-1.28,0-1.91a1.17,1.17,0,0,1,.13-.76,1.74,1.74,0,0,0,.24-1.09,5.53,5.53,0,0,1,1.09-3.3c.24-.34.53-.61.79-.92a1.24,1.24,0,0,0-.55-2.09,11.1,11.1,0,0,0-3-.63,25.6,25.6,0,0,1-3.38-.68c-1.41-.4-2.81-.85-4.2-1.32-1-.33-1.94-.55-2.87-.93a12.61,12.61,0,0,1-3.1-1.53,7.34,7.34,0,0,1-3-5.43,3,3,0,0,0-.13-.59,6.17,6.17,0,0,1-.34-2.13,1.77,1.77,0,0,0-.13-.85,3,3,0,0,1-.24-1.36,2.91,2.91,0,0,0-.23-1.08,11.83,11.83,0,0,1-.61-1.59,3.22,3.22,0,0,0-1.21-1.93,8.47,8.47,0,0,0-4.32-1.67,20.53,20.53,0,0,0-9.81,1.18c-1,.34-2,.84-2.94,1.27a5.21,5.21,0,0,0-1.76,1.24,7,7,0,0,1-1.63,1.29,14.41,14.41,0,0,0-4,3.11c-.2.25-.57.32-.69.64s-.53.66-.83,1a11.38,11.38,0,0,1-1.84,1.27,10.52,10.52,0,0,1-4,1.56,26.79,26.79,0,0,0-3.54.73,18.4,18.4,0,0,0-2.83,1.27,26.25,26.25,0,0,0-3.51,2.22,7.73,7.73,0,0,0-1.48,1.19,27.82,27.82,0,0,0-3.82,5.43,24.94,24.94,0,0,0-1.35,3.35,8.1,8.1,0,0,0-.35,2.21,27.1,27.1,0,0,0,.22,4.41,2,2,0,0,0,1.41,1.7,16.45,16.45,0,0,0,1.7.33c.78.16,1,.46,1,1.23,0,.5,0,1,0,1.48a2.9,2.9,0,0,1-1.1,2.6c-.65.58-1.22,1.24-1.82,1.86a4,4,0,0,0-1.21,2.34,8.79,8.79,0,0,0,.05,2.94c.26,1.06.41,2.14.66,3.2a24.84,24.84,0,0,0,.84,2.7,18.13,18.13,0,0,0,1.57,2.87,4.14,4.14,0,0,0,2.57,2.07c.89.24,1.75.59,2.63.82a12.88,12.88,0,0,0,2.29.45,32,32,0,0,0,7.44-.39c1.19-.19,2.38-.38,3.57-.61a18.13,18.13,0,0,0,4.35-1.09,29.78,29.78,0,0,0,4.31-2,10,10,0,0,1,2.52-1.13c.6-.19,1.22-.31,1.81-.56a8.74,8.74,0,0,1,2.07-.84,13.63,13.63,0,0,1,3.87-.41c.83.11,1.66.26,2.48.42a13.11,13.11,0,0,1,2.05.89,5.79,5.79,0,0,0,2.24.57Z" transform="translate(-182.83 -35)"/><path class="cls-35" d="M981.9,874.08h-1.56a5.79,5.79,0,0,1-2.24-.57,13.11,13.11,0,0,0-2.05-.89c-.82-.16-1.65-.31-2.48-.42a13.63,13.63,0,0,0-3.87.41,8.74,8.74,0,0,0-2.07.84c-.59.25-1.21.37-1.81.56a10,10,0,0,0-2.52,1.13,29.78,29.78,0,0,1-4.31,2,18.13,18.13,0,0,1-4.35,1.09c-1.19.23-2.38.42-3.57.61a32,32,0,0,1-7.44.39,12.88,12.88,0,0,1-2.29-.45c-.88-.23-1.74-.58-2.63-.82a4.14,4.14,0,0,1-2.57-2.07,18.13,18.13,0,0,1-1.57-2.87,24.84,24.84,0,0,1-.84-2.7c-.25-1.06-.4-2.14-.66-3.2a8.79,8.79,0,0,1-.05-2.94,4,4,0,0,1,1.21-2.34c.6-.62,1.17-1.28,1.82-1.86a2.9,2.9,0,0,0,1.1-2.6c0-.48,0-1,0-1.48,0-.77-.27-1.07-1-1.23a16.45,16.45,0,0,1-1.7-.33,2,2,0,0,1-1.41-1.7,27.1,27.1,0,0,1-.22-4.41,8.1,8.1,0,0,1,.35-2.21,24.94,24.94,0,0,1,1.35-3.35,27.82,27.82,0,0,1,3.82-5.43,7.73,7.73,0,0,1,1.48-1.19,26.25,26.25,0,0,1,3.51-2.22,18.4,18.4,0,0,1,2.83-1.27,26.79,26.79,0,0,1,3.54-.73,10.52,10.52,0,0,0,4-1.56,11.38,11.38,0,0,0,1.84-1.27c.3-.31.67-.53.83-1s.49-.39.69-.64a14.41,14.41,0,0,1,4-3.11,7,7,0,0,0,1.63-1.29,5.21,5.21,0,0,1,1.76-1.24c1-.43,1.92-.93,2.94-1.27a20.53,20.53,0,0,1,9.81-1.18,8.47,8.47,0,0,1,4.32,1.67,3.22,3.22,0,0,1,1.21,1.93,11.83,11.83,0,0,0,.61,1.59,2.91,2.91,0,0,1,.23,1.08,3,3,0,0,0,.24,1.36,1.77,1.77,0,0,1,.13.85,6.17,6.17,0,0,0,.34,2.13,3,3,0,0,1,.13.59,7.34,7.34,0,0,0,3,5.43,12.61,12.61,0,0,0,3.1,1.53c.93.38,1.92.6,2.87.93,1.39.47,2.79.92,4.2,1.32a25.6,25.6,0,0,0,3.38.68,11.1,11.1,0,0,1,3,.63,1.24,1.24,0,0,1,.55,2.09c-.26.31-.55.58-.79.92a5.53,5.53,0,0,0-1.09,3.3,1.74,1.74,0,0,1-.24,1.09,1.17,1.17,0,0,0-.13.76c0,.63,0,1.27,0,1.91a5.25,5.25,0,0,1-.25,1.61c-.22.71-.32,1.45-.55,2.17a19,19,0,0,1-1.23,3.28c-.64,1.18-1.18,2.41-1.73,3.63a24.06,24.06,0,0,1-2.46,4.26c-1,1.45-2.16,2.86-3.21,4.31a6.14,6.14,0,0,1-3,2.09c-.46.17-.87.43-1.35.57-1.05.29-2.11.52-3.18.75A17.3,17.3,0,0,1,981.9,874.08Zm-.46-5.43a16.4,16.4,0,0,0,3.33-.49,6.25,6.25,0,0,0,3.45-2.34c.93-1.43,1.88-2.86,2.68-4.36a57.91,57.91,0,0,1,5.46-8.35,11.41,11.41,0,0,0,2.35-5,4.49,4.49,0,0,0-1.14-4.17,7,7,0,0,0-3.52-1.78,5.6,5.6,0,0,0-3.41.18,7.76,7.76,0,0,0-3.36,2.66,10.4,10.4,0,0,1-4.43,3.66c-.81.32-1.61.66-2.41,1a8.78,8.78,0,0,0-3.19,2.06,11.49,11.49,0,0,0-3.27,5.91,21.13,21.13,0,0,0-.36,3.43,9.42,9.42,0,0,0,.88,3.7,5.34,5.34,0,0,0,3.12,3.2A9.75,9.75,0,0,0,981.44,868.65ZM970.9,842.9H973a10,10,0,0,0,5.12-1.36,7,7,0,0,0,2.91-6.29c-.26-1.6-.57-3.18-.85-4.77-.23-1.34-.56-2.66-.89-4a3.43,3.43,0,0,0-1.62-2.36,7.62,7.62,0,0,0-3.22-.93,13.42,13.42,0,0,0-6,1.17,12.49,12.49,0,0,0-3,1.4c-1,.75-1.92,1.48-2.81,2.31a1.7,1.7,0,0,0-.56.86,21.76,21.76,0,0,0-.93,6.06c0,.72,0,1.46,0,2.17.2,1.76.54,3.37,2.41,4.3a12.18,12.18,0,0,0,5.12,1.43C969.45,842.92,970.18,842.9,970.9,842.9Zm-24.08,17.22a6.27,6.27,0,0,0-3.08.54c-.86.42-1.69.9-2.53,1.36a1.75,1.75,0,0,0-.6.61c-.7,1.06-1.2,2.25-1.86,3.33-1.06,1.7-.32,3.26.19,4.86a.13.13,0,0,0,0,.07,5.19,5.19,0,0,0,2.68,2.11c2.38.8,4.81,1.56,7.38,1a12.13,12.13,0,0,0,4.64-1.58c1.34-.9,2.74-1.73,4.08-2.63a9.94,9.94,0,0,1,3.17-1.37,23.53,23.53,0,0,0,2.57-.75,5.27,5.27,0,0,0,3.23-4A2.17,2.17,0,0,0,965,861a9.25,9.25,0,0,0-4-.11,33.47,33.47,0,0,1-6.62.65,10.49,10.49,0,0,1-4.36-1,1.5,1.5,0,0,0-.65-.23C948.5,860.33,947.65,860,946.82,860.12Zm1.38-5.22a11.19,11.19,0,0,0,7.13-2,5.71,5.71,0,0,0,2.15-4.88,4.64,4.64,0,0,0-.82-2.54,12.75,12.75,0,0,1-1.75-5,8.83,8.83,0,0,0-.94-3,2.34,2.34,0,0,0-.9-.92,5.1,5.1,0,0,0-4.42-.45c-.87.31-1.75.61-2.62.9a9.08,9.08,0,0,0-4,2.52,16.11,16.11,0,0,0-3.08,4.79,6.14,6.14,0,0,0-.47,3.81,7.38,7.38,0,0,0,4.21,4.81,14.52,14.52,0,0,1,2,1,4.55,4.55,0,0,0,3.42.94Z" transform="translate(-182.83 -35)"/><path class="cls-36" d="M377.06,856.24c-.72,1.09-1.61,2.07-2.28,3.19a.69.69,0,0,1-.11.13,25.77,25.77,0,0,1-2.87,2.66,3.09,3.09,0,0,1-2.22.77,28.44,28.44,0,0,1-2.9-.28,14.7,14.7,0,0,0-3.25-.25,3.54,3.54,0,0,1-1.16-.13,7.21,7.21,0,0,0-2.8-.36c-.59,0-1-.39-1.6-.41-.3,0-.6-.1-.91-.1a2.44,2.44,0,0,1-1.21-.25,2.55,2.55,0,0,0-1.22-.25,5,5,0,0,1-1.87-.38,1.9,1.9,0,0,0-.74-.13,2.07,2.07,0,0,1-.74-.1,40.66,40.66,0,0,0-3.93-1.06,8.77,8.77,0,0,0-1.7-.4c-.51,0-.91-.54-1.46-.56a8.18,8.18,0,0,1-1.7-.37A15.44,15.44,0,0,1,340,857a1,1,0,0,0-.31-.11c-.95-.08-1.82-.52-2.75-.69a6.69,6.69,0,0,1-1.26-.55c-.72-.29-1.48-.45-2.2-.76a14.33,14.33,0,0,0-1.89-.76,8.48,8.48,0,0,1-2.08-.79,16.58,16.58,0,0,0-2.79-1.24,13,13,0,0,1-2.59-1.27c-.52-.33-1.11-.47-1.65-.75s-.92-.48-1.39-.69c-1-.46-2-1.07-3-1.47a.5.5,0,0,1-.2-.15,7.61,7.61,0,0,0-2.12-1.27c-.74-.44-1.45-.92-2.23-1.3-.58-.28-1.09-.75-1.66-1.09a54.71,54.71,0,0,1-5.05-3.5c-1.3-1-2.57-2-3.79-3.11-.8-.73-1.6-1.46-2.37-2.23a25,25,0,0,1-2-2.27,2.48,2.48,0,0,1-.46-.88,8.55,8.55,0,0,1-.75-3c0-.49-.2-1-.16-1.49a7.54,7.54,0,0,0-.31-3,1.11,1.11,0,0,1,0-.41,4.83,4.83,0,0,1,1.22-3.09,7.16,7.16,0,0,1,2.65-1.64,1.66,1.66,0,0,1,1.62-.11,3.81,3.81,0,0,1-1.08.83,3.88,3.88,0,0,0-1.27,1.31,3.58,3.58,0,0,0,.32,3.59,18.69,18.69,0,0,0,4.61,5.14c1.49,1.22,3,2.34,4.64,3.42s3,1.93,4.52,2.8c1.82,1,3.61,2.1,5.49,3a7.91,7.91,0,0,1,1.26.65,20.51,20.51,0,0,0,2.56,1.3c.53.29,1.12.47,1.64.77,1.29.71,2.63,1.31,4,1.89s2.62,1.09,3.91,1.66c1,.45,2.07.88,3.1,1.31,1.47.61,3,1.19,4.49,1.69s3.21,1.2,4.88,1.63a11.76,11.76,0,0,1,1.73.59,34.56,34.56,0,0,0,4,1.28c.61.19,1.2.41,1.81.58,1.07.3,2.16.52,3.22.8,1.37.37,2.76.61,4.11,1a26.66,26.66,0,0,0,2.93.59,21.3,21.3,0,0,0,3.72.42,9.91,9.91,0,0,1,1.08.12,32.42,32.42,0,0,1,3.25.21.44.44,0,0,0,.16,0,32.74,32.74,0,0,0,3.63-.93,3.55,3.55,0,0,0,2.17-4,6.67,6.67,0,0,0-1.45-3,26.07,26.07,0,0,0-4.63-4.58c-.9-.71-1.83-1.37-2.75-2-1.32-1-2.69-1.85-4.08-2.7-2-1.22-4-2.32-6-3.42-1.71-.92-3.41-1.86-5.19-2.63-1.34-.59-2.64-1.28-4-1.86-1.92-.82-3.78-1.79-5.76-2.5-1.36-.48-2.64-1.13-4-1.62-1.63-.6-3.24-1.26-4.88-1.81a8.63,8.63,0,0,0-1.8-.65c-.67-.07-1.17-.63-1.87-.63-.17,0-.38-.23-.42-.51a1,1,0,0,1,.8,0c.88.41,1.89.4,2.74.9.21.12.54,0,.72.17a1.39,1.39,0,0,0,1.14.39.7.7,0,0,1,.39.13c.67.46,1.51.41,2.24.8a10.39,10.39,0,0,0,2.47.89,9.07,9.07,0,0,1,1.81.75c.75.36,1.57.53,2.32.88a6,6,0,0,0,1.41.71,12.31,12.31,0,0,1,3,1.2,9.58,9.58,0,0,1,1.71.77,3.26,3.26,0,0,0,1,.54c.73.21,1.36.61,2.05.87.5.19.91.53,1.38.75a14.48,14.48,0,0,1,2.24,1.09,4.62,4.62,0,0,0,1,.55,18.89,18.89,0,0,1,2.14,1.21c1.33.7,2.6,1.51,3.88,2.3.94.58,1.87,1.18,2.77,1.81,1.12.77,2.2,1.6,3.28,2.42a43.92,43.92,0,0,1,3.82,3.38,15.07,15.07,0,0,1,2.65,3.51,7.76,7.76,0,0,1,.77,4.35.53.53,0,0,1-.11.31c-.36.34-.42.85-.73,1.21A1.47,1.47,0,0,0,377.06,856.24Z" transform="translate(-182.83 -35)"/><path class="cls-37" d="M377.06,856.24a1.47,1.47,0,0,1,.35-1.08c.31-.36.37-.87.73-1.21a.53.53,0,0,0,.11-.31,7.76,7.76,0,0,0-.77-4.35,15.07,15.07,0,0,0-2.65-3.51A43.92,43.92,0,0,0,371,842.4c-1.08-.82-2.16-1.65-3.28-2.42-.9-.63-1.83-1.23-2.77-1.81-1.28-.79-2.55-1.6-3.88-2.3a18.89,18.89,0,0,0-2.14-1.21,4.62,4.62,0,0,1-1-.55,14.48,14.48,0,0,0-2.24-1.09c-.47-.22-.88-.56-1.38-.75-.69-.26-1.32-.66-2.05-.87a3.26,3.26,0,0,1-1-.54,9.58,9.58,0,0,0-1.71-.77,12.31,12.31,0,0,0-3-1.2,6,6,0,0,1-1.41-.71c-.75-.35-1.57-.52-2.32-.88a9.07,9.07,0,0,0-1.81-.75,10.39,10.39,0,0,1-2.47-.89c-.73-.39-1.57-.34-2.24-.8a.7.7,0,0,0-.39-.13,1.39,1.39,0,0,1-1.14-.39c-.18-.2-.51-.05-.72-.17-.85-.5-1.86-.49-2.74-.9a1,1,0,0,0-.8,0c0,.28.25.51.42.51.7,0,1.2.56,1.87.63a8.63,8.63,0,0,1,1.8.65c1.64.55,3.25,1.21,4.88,1.81,1.36.49,2.64,1.14,4,1.62,2,.71,3.84,1.68,5.76,2.5,1.36.58,2.66,1.27,4,1.86,1.78.77,3.48,1.71,5.19,2.63,2,1.1,4.05,2.2,6,3.42,1.39.85,2.76,1.74,4.08,2.7.92.67,1.85,1.33,2.75,2a26.07,26.07,0,0,1,4.63,4.58,6.67,6.67,0,0,1,1.45,3,3.55,3.55,0,0,1-2.17,4,32.74,32.74,0,0,1-3.63.93.44.44,0,0,1-.16,0,32.42,32.42,0,0,0-3.25-.21,9.91,9.91,0,0,0-1.08-.12,21.3,21.3,0,0,1-3.72-.42,26.66,26.66,0,0,1-2.93-.59c-1.35-.44-2.74-.68-4.11-1-1.06-.28-2.15-.5-3.22-.8-.61-.17-1.2-.39-1.81-.58a34.56,34.56,0,0,1-4-1.28,11.76,11.76,0,0,0-1.73-.59c-1.67-.43-3.25-1.1-4.88-1.63s-3-1.08-4.49-1.69c-1-.43-2.08-.86-3.1-1.31-1.29-.57-2.61-1.1-3.91-1.66s-2.68-1.18-4-1.89c-.52-.3-1.11-.48-1.64-.77a20.51,20.51,0,0,1-2.56-1.3,7.91,7.91,0,0,0-1.26-.65c-1.88-.91-3.67-2-5.49-3-1.55-.87-3.05-1.81-4.52-2.8s-3.15-2.2-4.64-3.42a18.69,18.69,0,0,1-4.61-5.14,3.58,3.58,0,0,1-.32-3.59,3.88,3.88,0,0,1,1.27-1.31,3.81,3.81,0,0,0,1.08-.83,1.66,1.66,0,0,0-1.62.11,7.16,7.16,0,0,0-2.65,1.64,4.83,4.83,0,0,0-1.22,3.09,1.11,1.11,0,0,0,0,.41,7.54,7.54,0,0,1,.31,3c-.26,0-.32-.16-.32-.38a15.68,15.68,0,0,0-.28-2c-.33-2.31.11-4.38,2.68-5.76.63-.34,1.41-.32,1.94-.88.08-.07.27-.05.41,0a2.71,2.71,0,0,0,1.69-.37,1.42,1.42,0,0,1,.81-.13h7a1.48,1.48,0,0,1,.66.07,4.29,4.29,0,0,0,2.53.41c.76-.09,1.39.37,2.1.39,1.4.06,2.72.57,4.11.64a.88.88,0,0,1,.17,0c.83.5,1.83.38,2.69.78.41.2.91.1,1.3.25,1,.38,2.15.45,3.2.85a20.35,20.35,0,0,0,2.62.78,8.59,8.59,0,0,1,2.35.75,8.64,8.64,0,0,0,1.74.49c.83.24,1.59.64,2.44.82a16.66,16.66,0,0,1,1.72.59c.89.28,1.76.61,2.61,1a32.83,32.83,0,0,1,3.22,1.3,28,28,0,0,0,2.83,1.16c1,.41,2,.77,2.89,1.23s1.57.81,2.37,1.16c1,.42,1.85.95,2.82,1.35a22.88,22.88,0,0,1,2.2,1.13c1.17.62,2.35,1.23,3.48,1.91.77.48,1.56.94,2.34,1.39,1,.57,2,1.18,2.93,1.77a32.92,32.92,0,0,1,3.06,2.15c.85.68,1.75,1.29,2.59,2a23.83,23.83,0,0,1,5.75,6.34,6.51,6.51,0,0,1,.95,4.47,5.31,5.31,0,0,1-1.37,2.63C377.38,856.1,377.32,856.32,377.06,856.24ZM369.83,854a11.44,11.44,0,0,0,2.33-.23,4.34,4.34,0,0,0,2.27-.64c.54-.38,1-1,.87-1.49a5.5,5.5,0,0,0-.72-1.58,24.69,24.69,0,0,0-1.59-1.93,29,29,0,0,0-2.64-2.32,54.92,54.92,0,0,0-5.14-3.71c-1.19-.76-2.4-1.48-3.61-2.2q-2.16-1.27-4.36-2.45c-1.57-.83-3.17-1.62-4.75-2.42a15,15,0,0,0-2.15-1.09c-1.21-.41-2.29-1.11-3.49-1.55-.88-.32-1.7-.82-2.58-1.16-.64-.25-1.3-.48-1.91-.79-1-.51-2.1-.81-3.14-1.25s-2.39-.89-3.57-1.37a12.11,12.11,0,0,0-1.79-.67,26.63,26.63,0,0,1-2.82-.94,17.28,17.28,0,0,0-2.39-.73c-.77-.14-1.48-.46-2.22-.67-1.07-.29-2.15-.54-3.2-.88-.77-.25-1.57-.38-2.32-.62-.93-.3-1.87-.5-2.81-.71a50.88,50.88,0,0,0-5.06-1,24.19,24.19,0,0,0-3.4-.35,13.37,13.37,0,0,1-2.76,0,9.81,9.81,0,0,0-3,.15,3.4,3.4,0,0,0-1.47.51,1.4,1.4,0,0,0-.72,1.62,5.06,5.06,0,0,0,1.5,2.56,29.56,29.56,0,0,0,3.82,3.51c1.51,1.13,3,2.33,4.58,3.32s3.23,2,4.92,2.94,3.29,1.88,5,2.71c2,1,3.93,1.92,5.91,2.85,1.43.66,2.91,1.25,4.33,1.94s3.13,1.26,4.66,2c.47.22,1,.41,1.45.6.71.29,1.45.49,2.18.74a39.84,39.84,0,0,0,4,1.44,5.61,5.61,0,0,1,.79.26c1.19.44,2.38.88,3.61,1.21.24.07.53,0,.72.16.79.52,1.75.47,2.59.86a15,15,0,0,0,2.32.64,30.91,30.91,0,0,0,3.3.87c1,.16,1.94.48,2.92.68,1.33.28,2.69.43,4,.74.66.16,1.34.07,2,.18C367.44,853.84,368.65,853.75,369.83,854Zm-42.72-31.85a.46.46,0,0,0,.34.54c.71.26,1.43.51,2.16.72.17,0,.51.12.53-.2s-.22-.37-.44-.44a.9.9,0,0,0-.16,0,4.81,4.81,0,0,1-1.42-.41A1.35,1.35,0,0,0,327.11,822.11Zm-23.26-3c-.34-.18-.56-.19-.8.05A.58.58,0,0,0,303.85,819.15Z" transform="translate(-182.83 -35)"/><path class="cls-36" d="M369.83,854c-1.18-.21-2.39-.12-3.57-.33-.65-.11-1.33,0-2-.18-1.32-.31-2.68-.46-4-.74-1-.2-1.92-.52-2.92-.68a30.91,30.91,0,0,1-3.3-.87,15,15,0,0,1-2.32-.64c-.84-.39-1.8-.34-2.59-.86-.19-.13-.48-.09-.72-.16-1.23-.33-2.42-.77-3.61-1.21A5.61,5.61,0,0,0,344,848a39.84,39.84,0,0,1-4-1.44c-.73-.25-1.47-.45-2.18-.74-.49-.19-1-.38-1.45-.6-1.53-.72-3.15-1.24-4.66-2s-2.9-1.28-4.33-1.94c-2-.93-3.94-1.89-5.91-2.85-1.69-.83-3.31-1.83-5-2.71s-3.3-1.93-4.92-2.94-3.07-2.19-4.58-3.32a29.56,29.56,0,0,1-3.82-3.51,5.06,5.06,0,0,1-1.5-2.56,1.4,1.4,0,0,1,.72-1.62,3.4,3.4,0,0,1,1.47-.51,9.81,9.81,0,0,1,3-.15,13.37,13.37,0,0,0,2.76,0,24.19,24.19,0,0,1,3.4.35,50.88,50.88,0,0,1,5.06,1c.94.21,1.88.41,2.81.71.75.24,1.55.37,2.32.62,1,.34,2.13.59,3.2.88.74.21,1.45.53,2.22.67a17.28,17.28,0,0,1,2.39.73,26.63,26.63,0,0,0,2.82.94,12.11,12.11,0,0,1,1.79.67c1.18.48,2.4.87,3.57,1.37s2.13.74,3.14,1.25c.61.31,1.27.54,1.91.79.88.34,1.7.84,2.58,1.16,1.2.44,2.28,1.14,3.49,1.55a15,15,0,0,1,2.15,1.09c1.58.8,3.18,1.59,4.75,2.42s2.92,1.6,4.36,2.45c1.21.72,2.42,1.44,3.61,2.2a54.92,54.92,0,0,1,5.14,3.71,29,29,0,0,1,2.64,2.32,24.69,24.69,0,0,1,1.59,1.93,5.5,5.5,0,0,1,.72,1.58c.17.45-.33,1.11-.87,1.49a4.34,4.34,0,0,1-2.27.64A11.44,11.44,0,0,1,369.83,854Zm-3.07-2h1.61a3.68,3.68,0,0,0,1.83-.51,1.53,1.53,0,0,0,.87-1.5,2.35,2.35,0,0,0-.38-1.24,14.31,14.31,0,0,0-1.7-2,19.59,19.59,0,0,0-2-1.64,44.1,44.1,0,0,0-6-3.94l-3.36-1.86c-.82-.45-1.68-.85-2.5-1.32-1.08-.63-2.3-1-3.36-1.64a4.36,4.36,0,0,0-.81-.4,14.79,14.79,0,0,1-2.46-1.13,33.68,33.68,0,0,0-3.14-1.39c-.63-.3-1.3-.47-1.92-.78a42.6,42.6,0,0,0-4.57-1.94c-.94-.35-1.9-.66-2.79-1.08-1.08-.52-2.22-.83-3.32-1.29a8.58,8.58,0,0,0-1.46-.55c-.78-.18-1.52-.5-2.29-.73-1.06-.32-2.11-.67-3.15-1-.66-.23-1.36-.33-2-.57a18.58,18.58,0,0,0-2.78-.86c-.93-.19-1.8-.55-2.72-.76s-1.71-.46-2.59-.61a14.81,14.81,0,0,1-2.94-.56,1.61,1.61,0,0,0-.65-.13,16.54,16.54,0,0,1-3.06-.31,3.83,3.83,0,0,0-1.17,0c-.63.11-1.26.22-1.9.28a1.8,1.8,0,0,0-1.64,2.23,3.23,3.23,0,0,0,.62,1.26,12.82,12.82,0,0,0,2.1,2.13,51.67,51.67,0,0,0,5.89,4.1c1,.62,2,1.15,3,1.68,1.24.66,2.46,1.34,3.69,2,1.76,1,3.6,1.7,5.36,2.64a5.57,5.57,0,0,0,.8.43c.62.23,1.23.5,1.82.78a18.71,18.71,0,0,0,2.48,1.18c1.22.36,2.33,1,3.53,1.41s2.24,1.09,3.47,1.39a6.72,6.72,0,0,1,1.55.57c1.09.57,2.27.89,3.4,1.35s2.63.85,3.9,1.39a8.68,8.68,0,0,0,1.79.63,24.84,24.84,0,0,1,2.71.8c.92.28,1.84.6,2.76.88s1.91.64,2.86.83a42.32,42.32,0,0,1,4.87,1.09c.72.22,1.44.06,2.15.23A11.19,11.19,0,0,0,366.76,851.94Z" transform="translate(-182.83 -35)"/><path class="cls-36" d="M327.11,822.11a1.35,1.35,0,0,1,1,.18,4.81,4.81,0,0,0,1.42.41.9.9,0,0,1,.16,0c.22.07.46.21.44.44s-.36.25-.53.2c-.73-.21-1.45-.46-2.16-.72A.46.46,0,0,1,327.11,822.11Z" transform="translate(-182.83 -35)"/><path class="cls-36" d="M303.85,819.15a.58.58,0,0,1-.8.05C303.29,819,303.51,819,303.85,819.15Z" transform="translate(-182.83 -35)"/><path class="cls-37" d="M366.76,851.94a11.19,11.19,0,0,1-3.55-.41c-.71-.17-1.43,0-2.15-.23a42.32,42.32,0,0,0-4.87-1.09c-.95-.19-1.91-.54-2.86-.83s-1.84-.6-2.76-.88a24.84,24.84,0,0,0-2.71-.8,8.68,8.68,0,0,1-1.79-.63c-1.27-.54-2.63-.86-3.9-1.39s-2.31-.78-3.4-1.35a6.72,6.72,0,0,0-1.55-.57c-1.23-.3-2.3-1-3.47-1.39s-2.31-1-3.53-1.41a18.71,18.71,0,0,1-2.48-1.18c-.59-.28-1.2-.55-1.82-.78a5.57,5.57,0,0,1-.8-.43c-1.76-.94-3.6-1.69-5.36-2.64-1.23-.67-2.45-1.35-3.69-2-1-.53-2.05-1.06-3-1.68a51.67,51.67,0,0,1-5.89-4.1,12.82,12.82,0,0,1-2.1-2.13,3.23,3.23,0,0,1-.62-1.26,1.8,1.8,0,0,1,1.64-2.23c.64-.06,1.27-.17,1.9-.28a3.83,3.83,0,0,1,1.17,0,16.54,16.54,0,0,0,3.06.31,1.61,1.61,0,0,1,.65.13,14.81,14.81,0,0,0,2.94.56c.88.15,1.73.42,2.59.61s1.79.57,2.72.76a18.58,18.58,0,0,1,2.78.86c.64.24,1.34.34,2,.57,1,.36,2.09.71,3.15,1,.77.23,1.51.55,2.29.73a8.58,8.58,0,0,1,1.46.55c1.1.46,2.24.77,3.32,1.29.89.42,1.85.73,2.79,1.08a42.6,42.6,0,0,1,4.57,1.94c.62.31,1.29.48,1.92.78a33.68,33.68,0,0,1,3.14,1.39,14.79,14.79,0,0,0,2.46,1.13,4.36,4.36,0,0,1,.81.4c1.06.68,2.28,1,3.36,1.64.82.47,1.68.87,2.5,1.32l3.36,1.86a44.1,44.1,0,0,1,6,3.94,19.59,19.59,0,0,1,2,1.64,14.31,14.31,0,0,1,1.7,2,2.35,2.35,0,0,1,.38,1.24,1.53,1.53,0,0,1-.87,1.5,3.68,3.68,0,0,1-1.83.51Zm-58.08-28.39a7.66,7.66,0,0,0-1.59,0c-1.13.26-1.29.83-.82,1.59a5.26,5.26,0,0,0,.77,1,25.46,25.46,0,0,0,4,3.19c1.63,1.11,3.3,2.14,5,3.13,1.44.83,2.9,1.62,4.39,2.35.88.42,1.7.93,2.59,1.34s1.53.65,2.25,1.05c1,.54,2,.89,3,1.43s1.73.76,2.56,1.2a24.94,24.94,0,0,0,3,1.28c1.14.43,2.25.92,3.38,1.37s2.2.94,3.34,1.28a15.57,15.57,0,0,1,1.95.71c1.23.56,2.57.81,3.81,1.35a4.91,4.91,0,0,0,1.31.52,12.32,12.32,0,0,1,2.63.8c1.3.49,2.66.79,4,1.2a14.58,14.58,0,0,0,1.91.57c1.09.19,2.15.52,3.25.73a38.92,38.92,0,0,0,3.89.82c.65.06,1.33.14,2,.22a9.8,9.8,0,0,0,3.58-.13.84.84,0,0,0,.58-1.29,4.4,4.4,0,0,0-.8-1.07,18.06,18.06,0,0,0-2.94-2.58c-.71-.44-1.33-1-2.05-1.43-1.59-.92-3.1-2-4.75-2.77-1.31-.66-2.51-1.51-3.87-2.09-1.12-.47-2.12-1.17-3.24-1.66-1.75-.77-3.43-1.68-5.17-2.47-.55-.25-1.13-.4-1.67-.69-.93-.48-1.95-.78-2.9-1.23-.65-.32-1.35-.47-2-.8a27.36,27.36,0,0,0-3.14-1.25,12.13,12.13,0,0,1-1.85-.7,7.76,7.76,0,0,0-1.75-.69,18.07,18.07,0,0,1-2-.68c-1.07-.38-2.15-.73-3.22-1.11a11.6,11.6,0,0,1-1.78-.67,4.75,4.75,0,0,0-1.21-.28.23.23,0,1,0-.05.45,1.28,1.28,0,0,1,.72.19c.56.44,1.36.31,1.89.82a15,15,0,0,1,3.38,1.1c.86.34,1.73.65,2.59,1a4.16,4.16,0,0,0,1.53.59,5,5,0,0,1,1.9.72c.55.23,1.24.29,1.68.79,1.38.38,2.61,1.1,3.95,1.56.48.17.83.52,1.32.68a13.88,13.88,0,0,1,2.65,1.15c.87.52,1.85.79,2.72,1.32.6.36,1.29.6,1.93.92,1.16.59,2.33,1.17,3.47,1.8l2.18,1.19c.8.44,1.55,1,2.32,1.43a19.76,19.76,0,0,1,4.65,3.68,2.24,2.24,0,0,1,.35.46c.36.68.18,1.12-.5,1.49a4.5,4.5,0,0,1-3.1.23c-1.49-.28-2.95-.71-4.46-.94a12.31,12.31,0,0,1-2.4-.64,14.87,14.87,0,0,0-2.68-.84,1.75,1.75,0,0,1-.64-.18c-.59-.38-1.36-.31-1.92-.77a.48.48,0,0,0-.32-.06,3.77,3.77,0,0,1-1.36-.37c-1.14-.44-2.27-.88-3.42-1.27-.31-.11-.63-.2-.94-.33a22.88,22.88,0,0,0-3-1.2,4.19,4.19,0,0,1-.86-.31c-1.24-.68-2.61-1.06-3.89-1.68s-2.63-1.13-3.95-1.69c-1.07-.45-2.12-1-3.17-1.47-.8-.37-1.61-.73-2.44-1a11.43,11.43,0,0,1-1.8-.87c-1.19-.69-2.42-1.34-3.67-1.92-.86-.41-1.58-1-2.44-1.44a5.83,5.83,0,0,1-1.64-1.12,5.73,5.73,0,0,0-1.21-.89,14.23,14.23,0,0,1-3.23-2.76,1.12,1.12,0,0,1,.4-1.75,3.31,3.31,0,0,1,1.81-.2,8.42,8.42,0,0,0,2,.13,2.47,2.47,0,0,1,1.45.29,1.32,1.32,0,0,0,1,.21c.19,0,.44.06.49-.2s-.22-.25-.4-.29a4.77,4.77,0,0,1-.65-.17,4,4,0,0,0-1.53-.36,3.22,3.22,0,0,1-1.13-.27,7,7,0,0,0-1-.23c-.78-.19-1.6,0-2.33-.21A8.56,8.56,0,0,0,308.68,823.55Zm52.23,24.18c.45,0,.76,0,1.07,0s.75,0,.93-.42-.2-.61-.43-.83a29.32,29.32,0,0,0-5.39-3.87c-1.12-.67-2.3-1.23-3.42-1.89-1.42-.85-3-1.49-4.4-2.3-.7-.4-1.47-.64-2.17-1a10.5,10.5,0,0,0-2-.91,31.29,31.29,0,0,1-3-1.31c-1.71-.83-3.51-1.46-5.23-2.3-.87-.43-1.88-.63-2.76-1.08a21.63,21.63,0,0,0-2.66-.95c-.54-.19-1-.47-1.61-.63a21,21,0,0,1-2.28-.76,13.5,13.5,0,0,0-2.28-.82c-.83-.18-1.59-.58-2.41-.79a18.8,18.8,0,0,0-1.82-.55c-1.13-.16-2.17-.62-3.31-.8a21.15,21.15,0,0,1-3-.65,5.64,5.64,0,0,0-1.92-.08c-.6,0-.74.46-.42,1a2.27,2.27,0,0,0,.65.76c.67.49,1.26,1.09,2,1.53s1.59,1.22,2.47,1.68c1.5.77,2.91,1.71,4.44,2.44,1.12.53,2.18,1.22,3.32,1.71,1.63.69,3.16,1.58,4.79,2.28s3,1.22,4.46,2a3.22,3.22,0,0,0,1.07.45,4.33,4.33,0,0,1,1.59.68,2,2,0,0,0,.44.23,27.51,27.51,0,0,1,3.41,1.3,26.79,26.79,0,0,1,3.41,1.34,14.49,14.49,0,0,0,3,1c.52.14,1,.42,1.48.54.86.21,1.7.51,2.55.76s1.76.64,2.68.86a6.64,6.64,0,0,1,1.07.18,10.46,10.46,0,0,0,3,.83C359.25,847.46,360.11,847.92,360.91,847.73Z" transform="translate(-182.83 -35)"/><path class="cls-36" d="M308.68,823.55a8.56,8.56,0,0,1,2.56.27c.73.24,1.55,0,2.33.21a7,7,0,0,1,1,.23,3.22,3.22,0,0,0,1.13.27,4,4,0,0,1,1.53.36,4.77,4.77,0,0,0,.65.17c.18,0,.44,0,.4.29s-.3.18-.49.2a1.32,1.32,0,0,1-1-.21,2.47,2.47,0,0,0-1.45-.29,8.42,8.42,0,0,1-2-.13,3.31,3.31,0,0,0-1.81.2,1.12,1.12,0,0,0-.4,1.75,14.23,14.23,0,0,0,3.23,2.76,5.73,5.73,0,0,1,1.21.89,5.83,5.83,0,0,0,1.64,1.12c.86.41,1.58,1,2.44,1.44,1.25.58,2.48,1.23,3.67,1.92a11.43,11.43,0,0,0,1.8.87c.83.31,1.64.67,2.44,1,1.05.49,2.1,1,3.17,1.47,1.32.56,2.67,1.07,3.95,1.69s2.65,1,3.89,1.68a4.19,4.19,0,0,0,.86.31,22.88,22.88,0,0,1,3,1.2c.31.13.63.22.94.33,1.15.39,2.28.83,3.42,1.27a3.77,3.77,0,0,0,1.36.37.48.48,0,0,1,.32.06c.56.46,1.33.39,1.92.77a1.75,1.75,0,0,0,.64.18,14.87,14.87,0,0,1,2.68.84,12.31,12.31,0,0,0,2.4.64c1.51.23,3,.66,4.46.94a4.5,4.5,0,0,0,3.1-.23c.68-.37.86-.81.5-1.49a2.24,2.24,0,0,0-.35-.46,19.76,19.76,0,0,0-4.65-3.68c-.77-.47-1.52-1-2.32-1.43l-2.18-1.19c-1.14-.63-2.31-1.21-3.47-1.8-.64-.32-1.33-.56-1.93-.92-.87-.53-1.85-.8-2.72-1.32A13.88,13.88,0,0,0,343.9,835c-.49-.16-.84-.51-1.32-.68-1.34-.46-2.57-1.18-3.95-1.56-.44-.5-1.13-.56-1.68-.79a5,5,0,0,0-1.9-.72,4.16,4.16,0,0,1-1.53-.59c-.86-.34-1.73-.65-2.59-1a15,15,0,0,0-3.38-1.1c-.53-.51-1.33-.38-1.89-.82a1.28,1.28,0,0,0-.72-.19.23.23,0,1,1,.05-.45,4.75,4.75,0,0,1,1.21.28,11.6,11.6,0,0,0,1.78.67c1.07.38,2.15.73,3.22,1.11a18.07,18.07,0,0,0,2,.68,7.76,7.76,0,0,1,1.75.69,12.13,12.13,0,0,0,1.85.7,27.36,27.36,0,0,1,3.14,1.25c.64.33,1.34.48,2,.8.95.45,2,.75,2.9,1.23.54.29,1.12.44,1.67.69,1.74.79,3.42,1.7,5.17,2.47,1.12.49,2.12,1.19,3.24,1.66,1.36.58,2.56,1.43,3.87,2.09,1.65.82,3.16,1.85,4.75,2.77.72.42,1.34,1,2.05,1.43a18.06,18.06,0,0,1,2.94,2.58,4.4,4.4,0,0,1,.8,1.07.84.84,0,0,1-.58,1.29,9.8,9.8,0,0,1-3.58.13c-.65-.08-1.33-.16-2-.22a38.92,38.92,0,0,1-3.89-.82c-1.1-.21-2.16-.54-3.25-.73a14.58,14.58,0,0,1-1.91-.57c-1.33-.41-2.69-.71-4-1.2a12.32,12.32,0,0,0-2.63-.8,4.91,4.91,0,0,1-1.31-.52c-1.24-.54-2.58-.79-3.81-1.35a15.57,15.57,0,0,0-1.95-.71c-1.14-.34-2.23-.84-3.34-1.28s-2.24-.94-3.38-1.37a24.94,24.94,0,0,1-3-1.28c-.83-.44-1.73-.74-2.56-1.2s-2-.89-3-1.43c-.72-.4-1.5-.7-2.25-1.05s-1.71-.92-2.59-1.34c-1.49-.73-2.95-1.52-4.39-2.35-1.7-1-3.37-2-5-3.13a25.46,25.46,0,0,1-4-3.19,5.26,5.26,0,0,1-.77-1c-.47-.76-.31-1.33.82-1.59A7.66,7.66,0,0,1,308.68,823.55Z" transform="translate(-182.83 -35)"/><path class="cls-36" d="M360.91,847.73c-.8.19-1.66-.27-2.57-.4a10.46,10.46,0,0,1-3-.83,6.64,6.64,0,0,0-1.07-.18c-.92-.22-1.78-.6-2.68-.86s-1.69-.55-2.55-.76c-.51-.12-1-.4-1.48-.54a14.49,14.49,0,0,1-3-1,26.79,26.79,0,0,0-3.41-1.34,27.51,27.51,0,0,0-3.41-1.3,2,2,0,0,1-.44-.23,4.33,4.33,0,0,0-1.59-.68,3.22,3.22,0,0,1-1.07-.45c-1.44-.78-3-1.35-4.46-2s-3.16-1.59-4.79-2.28c-1.14-.49-2.2-1.18-3.32-1.71-1.53-.73-2.94-1.67-4.44-2.44-.88-.46-1.63-1.16-2.47-1.68s-1.31-1-2-1.53a2.27,2.27,0,0,1-.65-.76c-.32-.53-.18-1,.42-1a5.64,5.64,0,0,1,1.92.08,21.15,21.15,0,0,0,3,.65c1.14.18,2.18.64,3.31.8a18.8,18.8,0,0,1,1.82.55c.82.21,1.58.61,2.41.79a13.5,13.5,0,0,1,2.28.82,21,21,0,0,0,2.28.76c.57.16,1.07.44,1.61.63a21.63,21.63,0,0,1,2.66.95c.88.45,1.89.65,2.76,1.08,1.72.84,3.52,1.47,5.23,2.3a31.29,31.29,0,0,0,3,1.31,10.5,10.5,0,0,1,2,.91c.7.41,1.47.65,2.17,1,1.44.81,3,1.45,4.4,2.3,1.12.66,2.3,1.22,3.42,1.89a29.32,29.32,0,0,1,5.39,3.87c.23.22.61.41.43.83s-.55.43-.93.42S361.36,847.73,360.91,847.73Zm-43.77-20.49h-.83a.71.71,0,0,0-.65.46.58.58,0,0,0,.17.68c.25.23.49.47.74.68.85.72,1.88,1.17,2.76,1.84a7.61,7.61,0,0,0,1.45.79c1,.42,1.8,1,2.78,1.44a37.59,37.59,0,0,1,3.43,1.69c.64.33,1.35.51,2,.86a14.29,14.29,0,0,0,1.46.74c1.61.69,3.24,1.36,4.86,2a5.26,5.26,0,0,0,1,.51,10.08,10.08,0,0,1,2.39.94c.82.32,1.64.63,2.43,1s1.46.44,2.15.76c1.21.55,2.53.79,3.75,1.33a8,8,0,0,0,1.69.62,9.55,9.55,0,0,0,2.41.59c.11,0,.24.12.36.18.72.38,1.55.45,2.29.8,0,0,.11,0,.16,0a10.82,10.82,0,0,1,2.44.51,3.09,3.09,0,0,0,1.57.15.65.65,0,0,0,.61-.49.71.71,0,0,0-.23-.74,17.08,17.08,0,0,0-3.6-2.56,34.87,34.87,0,0,0-3.52-1.88c-.88-.42-1.72-.9-2.62-1.27s-1.52-.75-2.34-1-1.45-.73-2.21-1c-1.26-.54-2.48-1.21-3.8-1.64-.1,0-.19-.11-.3-.14a25.17,25.17,0,0,0-2.88-1.23,3.26,3.26,0,0,1-.85-.33,5.16,5.16,0,0,0-1.48-.67,12.19,12.19,0,0,1-2.18-.75,17.53,17.53,0,0,0-2.43-1c-.49-.08-.9-.46-1.43-.38-.07,0-.17-.07-.21-.13a.79.79,0,0,0-.79-.35c-.11,0-.26,0-.31-.09-.41-.49-1-.38-1.54-.56-.13,0-.29,0-.41-.07a16.75,16.75,0,0,0-3.37-1.08,9.36,9.36,0,0,0-1.09-.39,10.91,10.91,0,0,0-2.73-.53l-.08,0A1.3,1.3,0,0,0,317.14,827.24Z" transform="translate(-182.83 -35)"/><path class="cls-37" d="M317.14,827.24a1.3,1.3,0,0,1,1,.26l.08,0a10.91,10.91,0,0,1,2.73.53,9.36,9.36,0,0,1,1.09.39,16.75,16.75,0,0,1,3.37,1.08c.12.06.28,0,.41.07.51.18,1.13.07,1.54.56.05.07.2.09.31.09a.79.79,0,0,1,.79.35c0,.06.14.14.21.13.53-.08.94.3,1.43.38a17.53,17.53,0,0,1,2.43,1,12.19,12.19,0,0,0,2.18.75,5.16,5.16,0,0,1,1.48.67,3.26,3.26,0,0,0,.85.33,25.17,25.17,0,0,1,2.88,1.23c.11,0,.2.11.3.14,1.32.43,2.54,1.1,3.8,1.64.76.32,1.46.78,2.21,1s1.55.74,2.34,1,1.74.85,2.62,1.27a34.87,34.87,0,0,1,3.52,1.88,17.08,17.08,0,0,1,3.6,2.56.71.71,0,0,1,.23.74.65.65,0,0,1-.61.49,3.09,3.09,0,0,1-1.57-.15,10.82,10.82,0,0,0-2.44-.51c-.05,0-.12,0-.16,0-.74-.35-1.57-.42-2.29-.8-.12-.06-.25-.19-.36-.18a9.55,9.55,0,0,1-2.41-.59A8,8,0,0,1,347,843c-1.22-.54-2.54-.78-3.75-1.33-.69-.32-1.49-.44-2.15-.76s-1.61-.7-2.43-1a10.08,10.08,0,0,0-2.39-.94,5.26,5.26,0,0,1-1-.51c-1.62-.68-3.25-1.35-4.86-2a14.29,14.29,0,0,1-1.46-.74c-.62-.35-1.33-.53-2-.86a37.59,37.59,0,0,0-3.43-1.69c-1-.39-1.81-1-2.78-1.44a7.61,7.61,0,0,1-1.45-.79c-.88-.67-1.91-1.12-2.76-1.84-.25-.21-.49-.45-.74-.68a.58.58,0,0,1-.17-.68.71.71,0,0,1,.65-.46Zm1.1,1h-.17c-.23,0-.58-.12-.68.15s.26.44.45.63.11.05.14.09c.47.5,1.16.62,1.69,1a11.28,11.28,0,0,0,2.64,1.53c.87.36,1.65.88,2.5,1.26a31.21,31.21,0,0,1,2.87,1.35c.92.51,1.91.88,2.87,1.31,1.44.63,2.86,1.32,4.32,1.91a8.7,8.7,0,0,1,1.53.6c.56.39,1.28.37,1.76.86,1.12.2,2,.94,3.19,1.08.54.6,1.36.59,2,.84a13,13,0,0,0,1.77.69,8.36,8.36,0,0,1,2.11.73c.6.32,1.24.39,1.84.67,1.08.51,2.35.55,3.41,1.17a.29.29,0,0,0,.16,0c.95,0,1.8.51,2.74.61a7.82,7.82,0,0,0,1.08.06.38.38,0,0,0,.37-.29c0-.16-.09-.25-.2-.33-.44-.29-.89-.56-1.31-.87a27.56,27.56,0,0,0-2.87-1.68c-.8-.45-1.67-.77-2.46-1.21-1.84-1-3.75-1.93-5.67-2.79a5.76,5.76,0,0,0-1.52-.65,5.57,5.57,0,0,1-1.72-.76c-.55-.28-1.15-.46-1.71-.76a23.35,23.35,0,0,0-2.41-1,44.71,44.71,0,0,0-4.47-1.71,1.26,1.26,0,0,1-.4-.14,9,9,0,0,0-2.28-.92c-.63-.28-1.35-.37-2-.66a11.64,11.64,0,0,0-2.14-.82,7.42,7.42,0,0,0-2.07-.58c-.11,0-.24-.13-.34-.22s-.26-.23-.44-.23c-.9,0-1.69-.53-2.57-.59C319.61,828.63,319,828.14,318.24,828.24Z" transform="translate(-182.83 -35)"/><path class="cls-36" d="M318.24,828.24c.75-.1,1.37.39,2.09.44.88.06,1.67.58,2.57.59.18,0,.3.13.44.23s.23.22.34.22a7.42,7.42,0,0,1,2.07.58,11.64,11.64,0,0,1,2.14.82c.61.29,1.33.38,2,.66a9,9,0,0,1,2.28.92,1.26,1.26,0,0,0,.4.14,44.71,44.71,0,0,1,4.47,1.71,23.35,23.35,0,0,1,2.41,1c.56.3,1.16.48,1.71.76a5.57,5.57,0,0,0,1.72.76,5.76,5.76,0,0,1,1.52.65c1.92.86,3.83,1.76,5.67,2.79.79.44,1.66.76,2.46,1.21a27.56,27.56,0,0,1,2.87,1.68c.42.31.87.58,1.31.87.11.08.23.17.2.33a.38.38,0,0,1-.37.29,7.82,7.82,0,0,1-1.08-.06c-.94-.1-1.79-.59-2.74-.61a.29.29,0,0,1-.16,0c-1.06-.62-2.33-.66-3.41-1.17-.6-.28-1.24-.35-1.84-.67a8.36,8.36,0,0,0-2.11-.73,13,13,0,0,1-1.77-.69c-.68-.25-1.5-.24-2-.84-1.14-.14-2.07-.88-3.19-1.08-.48-.49-1.2-.47-1.76-.86a8.7,8.7,0,0,0-1.53-.6c-1.46-.59-2.88-1.28-4.32-1.91-1-.43-1.95-.8-2.87-1.31a31.21,31.21,0,0,0-2.87-1.35c-.85-.38-1.63-.9-2.5-1.26a11.28,11.28,0,0,1-2.64-1.53c-.53-.43-1.22-.55-1.69-1,0,0-.1-.05-.14-.09s-.55-.33-.45-.63.45-.11.68-.15Z" transform="translate(-182.83 -35)"/><path class="cls-8" d="M972.81,341c-2,0-4,0-6,0-1,0-1.91-.42-2.88-.08-.12,0-.31-.08-.46-.15a14.3,14.3,0,0,0-5.17-1c-.94-.78-2.43-.42-3.22-1.52-.85-.17-1.47-.84-2.25-1.12a3.71,3.71,0,0,1-2.12-2,3.91,3.91,0,0,0-.37-.77c-1.09-1.54-.92-3.21-.61-4.92.22-1.28,1-2.44.8-3.79a.33.33,0,0,1,.07-.23c.82-1,.89-2.24,1.39-3.34a14.16,14.16,0,0,0,1.44-6.1,6.48,6.48,0,0,1,.59-3.33,2.92,2.92,0,0,0,.15-1.44c0-.9,0-1.8,0-2.69,0-.56-.19-.83-.78-.82a14.91,14.91,0,0,0-2.92.07c-.82.19-1.64.35-2.47.5a34.47,34.47,0,0,1-4.87.16.49.49,0,0,1-.24,0c-1.53-.88-3.36-.76-5-1.51a24.69,24.69,0,0,1-5.46-3.41,27.21,27.21,0,0,1-5.23-5.94,10.43,10.43,0,0,1-1.54-3.53,2.63,2.63,0,0,0-.52-1.23,3,3,0,0,1-.59-1.46,3.3,3.3,0,0,0-.53-1.46,1.89,1.89,0,0,1-.27-1.17c0-2.08,0-4.17,0-6.25a3.52,3.52,0,0,1,.13-1,9.59,9.59,0,0,0,.7-2.8.73.73,0,0,1,.16-.45c1-1.25,1.29-2.89,2.19-4.22a32.78,32.78,0,0,1,7.41-8,36.08,36.08,0,0,1,4-2.76c1.79-1,3.6-1.95,5.37-3a28.54,28.54,0,0,1,4.9-1.94c1.64-.58,3.36-.91,5-1.6a13.28,13.28,0,0,1,2.27-.38,5.07,5.07,0,0,0,1.73-.47,2.15,2.15,0,0,1,1.17-.31c2.36.09,4.7-.41,7.07-.25a4.51,4.51,0,0,0,2.06-.19,1,1,0,0,1,.48,0c2.47.48,5,.08,7.44.24a20.42,20.42,0,0,1,4.82.54c1.21.38,2.52.26,3.64.73s2.45.55,3.55,1.13a11.45,11.45,0,0,0,2.39.82,12.13,12.13,0,0,1,2.18,1c1.87.92,3.67,2,5.49,3,.38.22.66.61,1,.84a23.6,23.6,0,0,1,5.43,4.87,18.61,18.61,0,0,1,2.76,4.13,22.83,22.83,0,0,1,1.38,3.09,24.79,24.79,0,0,1,1.28,5.26,22.2,22.2,0,0,1-.82,5.63c-.26,1.32-1.12,2.43-1.21,3.79a50.6,50.6,0,0,1-3.48,5.4c-1.39,1.66-3,3.07-4.39,4.75a15.44,15.44,0,0,1-4.18,3.51,9.13,9.13,0,0,1-3.53,1.06c-1.37.21-2.77,0-4.11.36a.79.79,0,0,1-.69-.16,1.68,1.68,0,0,0-.55-.24c-1.64-.33-2,0-2,1.69,0,.73,0,1.47,0,2.2a4.63,4.63,0,0,0,.55,2.46,5.36,5.36,0,0,1,.43,2,1.88,1.88,0,0,0,.07.72c.62,1.14.59,2.53,1.38,3.6a1.25,1.25,0,0,1,.2.44c.49,2.09,1.46,4,1.89,6.13a5.53,5.53,0,0,1,.13,1.21,2.52,2.52,0,0,0,.35,1.38,4.84,4.84,0,0,1,.35,3.11,6.76,6.76,0,0,1-.45,2.55,1.45,1.45,0,0,0-.2.7c0,2.55-1.58,4.2-3.3,5.7a5.15,5.15,0,0,1-2.93,1.35,1.25,1.25,0,0,0-.59.12,6.64,6.64,0,0,1-4,.85C976.73,341,974.77,341,972.81,341Zm-4-85.13c-3.49-.47-7.2.48-10.92,1a33.62,33.62,0,0,0-7.33,1.77,66.05,66.05,0,0,0-7.31,2.89,56.36,56.36,0,0,0-7.18,4.27,35.86,35.86,0,0,0-6.78,6.47c-.65.83-1.16,1.77-1.73,2.66a18.51,18.51,0,0,0-2.14,4.63,13.24,13.24,0,0,0-.59,4.58,32.4,32.4,0,0,0,.25,5.11,27.8,27.8,0,0,0,1,3.14,21.53,21.53,0,0,0,3.52,6.62,23.27,23.27,0,0,0,4.82,4.63,17.58,17.58,0,0,0,8.3,3.48,11.62,11.62,0,0,0,2.42.19c2.23-.18,4.46-.34,6.69-.4a7.56,7.56,0,0,0,2.06-.17c.65-.21,1,0,1.23.65a1.4,1.4,0,0,1,.08,1,12.43,12.43,0,0,0-.21,3.16,9.06,9.06,0,0,1-.08,1.47,20.8,20.8,0,0,0-.42,3.62,11.09,11.09,0,0,1-.82,4.05c-.49,1.16-.9,2.35-1.37,3.51a12.58,12.58,0,0,0-1.08,2.85,7.42,7.42,0,0,1-.79,3.16,1.31,1.31,0,0,0-.07.6,6,6,0,0,0,3,5.52c.83.58,1.79,1,2.66,1.49a6.5,6.5,0,0,0,2.64.88c1.58.18,3.11.63,4.66.93a3.4,3.4,0,0,0,1.45.06,10.66,10.66,0,0,1,2-.13c1.59-.08,3.17.22,4.75.23a75.89,75.89,0,0,0,9.89-.27,8.59,8.59,0,0,0,4.8-1.9c2.73-2.39,3.12-5.59,3-8.89-.06-1.55.06-3.2-.83-4.64-.19-2.14-1.17-4-1.82-6-.31-1-.89-1.85-1.11-2.84a48.42,48.42,0,0,1-1.18-5.34,44.11,44.11,0,0,1-.07-5.14c0-.72.51-1,1.28-.85a5,5,0,0,0,.85.11h6.24a2.14,2.14,0,0,0,.84-.1,15.74,15.74,0,0,0,5.5-3.78c.6-.65,1.17-1.35,1.81-2a35.48,35.48,0,0,0,4.44-5.33,22.18,22.18,0,0,0,3.44-8.37,14,14,0,0,0-.07-5.93c-.11-.47,0-1-.24-1.43-.69-1.16-.88-2.51-1.5-3.72a24.35,24.35,0,0,0-3.72-5.4,32.18,32.18,0,0,0-8.12-6.17,25.45,25.45,0,0,0-3.92-1.93c-.73-.26-1.45-.52-2.16-.79a13.48,13.48,0,0,0-2.85-1c-2.34-.34-4.56-1.21-6.93-1.4-1.16-.09-2.31-.46-3.47-.59A43.94,43.94,0,0,0,968.77,255.85Z" transform="translate(-182.83 -35)"/><path class="cls-38" d="M968.77,255.85a43.94,43.94,0,0,1,6.69.19c1.16.13,2.31.5,3.47.59,2.37.19,4.59,1.06,6.93,1.4a13.48,13.48,0,0,1,2.85,1c.71.27,1.43.53,2.16.79a25.45,25.45,0,0,1,3.92,1.93,32.18,32.18,0,0,1,8.12,6.17,24.35,24.35,0,0,1,3.72,5.4c.62,1.21.81,2.56,1.5,3.72.26.43.13,1,.24,1.43a14,14,0,0,1,.07,5.93,22.18,22.18,0,0,1-3.44,8.37,35.48,35.48,0,0,1-4.44,5.33c-.64.62-1.21,1.32-1.81,2a15.74,15.74,0,0,1-5.5,3.78,2.14,2.14,0,0,1-.84.1h-6.24a5,5,0,0,1-.85-.11c-.77-.13-1.26.13-1.28.85a44.11,44.11,0,0,0,.07,5.14,48.42,48.42,0,0,0,1.18,5.34c.22,1,.8,1.86,1.11,2.84.65,2,1.63,3.9,1.82,6,.89,1.44.77,3.09.83,4.64.14,3.3-.25,6.5-3,8.89a8.59,8.59,0,0,1-4.8,1.9,75.89,75.89,0,0,1-9.89.27c-1.58,0-3.16-.31-4.75-.23a10.66,10.66,0,0,0-2,.13,3.4,3.4,0,0,1-1.45-.06c-1.55-.3-3.08-.75-4.66-.93a6.5,6.5,0,0,1-2.64-.88c-.87-.53-1.83-.91-2.66-1.49a6,6,0,0,1-3-5.52,1.31,1.31,0,0,1,.07-.6,7.42,7.42,0,0,0,.79-3.16,12.58,12.58,0,0,1,1.08-2.85c.47-1.16.88-2.35,1.37-3.51a11.09,11.09,0,0,0,.82-4.05,20.8,20.8,0,0,1,.42-3.62,9.06,9.06,0,0,0,.08-1.47,12.43,12.43,0,0,1,.21-3.16,1.4,1.4,0,0,0-.08-1c-.25-.62-.58-.86-1.23-.65a7.56,7.56,0,0,1-2.06.17c-2.23.06-4.46.22-6.69.4a11.62,11.62,0,0,1-2.42-.19,17.58,17.58,0,0,1-8.3-3.48,23.27,23.27,0,0,1-4.82-4.63,21.53,21.53,0,0,1-3.52-6.62,27.8,27.8,0,0,1-1-3.14,32.4,32.4,0,0,1-.25-5.11,13.24,13.24,0,0,1,.59-4.58,18.51,18.51,0,0,1,2.14-4.63c.57-.89,1.08-1.83,1.73-2.66a35.86,35.86,0,0,1,6.78-6.47,56.36,56.36,0,0,1,7.18-4.27,66.05,66.05,0,0,1,7.31-2.89,33.62,33.62,0,0,1,7.33-1.77C961.57,256.33,965.28,255.38,968.77,255.85ZM973,337.54v0c1.75,0,3.51-.06,5.26,0s3.13-.79,4.72-1.1c.17,0,.32-.24.47-.37a6.8,6.8,0,0,0,2.33-5.29,29.52,29.52,0,0,0-.41-5.21,43.56,43.56,0,0,0-1.6-5.47c-.77-2.35-1.91-4.58-2.28-7.05a26.58,26.58,0,0,1-.61-3.85c0-2.16-.12-4.33,0-6.48a9.36,9.36,0,0,1,1.39-4.61,17.86,17.86,0,0,1,2.49-2.85,9.08,9.08,0,0,1,6.78-2.8c.49,0,1,0,1.47,0a5,5,0,0,1,4.37,2.2,3.22,3.22,0,0,0,.24.28c.81.91,1,.92,1.84.08a27.29,27.29,0,0,0,2.73-3.42,19.42,19.42,0,0,0,3.06-7.75,13.87,13.87,0,0,0-.83-7.79,18.7,18.7,0,0,0-4.25-6.77,30.06,30.06,0,0,0-4-3.44,32.06,32.06,0,0,0-5.27-3c-1.09-.45-2.15-.95-3.23-1.41s-2.36-.87-3.56-1.24c-1.54-.47-3.16-.68-4.74-1a53.17,53.17,0,0,0-5.92-.73c-.84-.08-1.68-.24-2.54-.28a49.42,49.42,0,0,0-8.51.57,16.31,16.31,0,0,0-3.26.39,32.59,32.59,0,0,1-3.81.79,26.36,26.36,0,0,0-4.68,1.31c-1.22.53-2.49.92-3.71,1.46-1,.45-2.12.86-3.09,1.4a42,42,0,0,0-6.94,4.49,27.59,27.59,0,0,0-6.74,7.63c-1.14,2.09-2.32,4.22-2.33,6.74a4.49,4.49,0,0,1-.13.59c-.24,1.51-.74,2.95-.36,4.56a15.87,15.87,0,0,0,2.3,5.59,60.06,60.06,0,0,0,5.78,6.77,5.42,5.42,0,0,0,4.91,1.85,2.62,2.62,0,0,0,1.53-.66,14,14,0,0,0,1.68-2.08,7,7,0,0,1,5.15-3.15c2.72-.24,4.53,1.32,6,3.32a19.46,19.46,0,0,1,1.55,2.45c.41.78,1.23,1.38,1.24,2.33,0,1.22.27,2.42.26,3.65a83.65,83.65,0,0,1-.43,9.88,18,18,0,0,1-1.11,4.22,41.1,41.1,0,0,1-1.53,3.85,13.94,13.94,0,0,0-1,5.23,2.63,2.63,0,0,0,1,2.49,17.09,17.09,0,0,0,4,2.29c1.21.47,2.5.32,3.71.67a22.89,22.89,0,0,0,6.27.73Z" transform="translate(-182.83 -35)"/><path class="cls-8" d="M973,337.54h-4.29a22.89,22.89,0,0,1-6.27-.73c-1.21-.35-2.5-.2-3.71-.67a17.09,17.09,0,0,1-4-2.29,2.63,2.63,0,0,1-1-2.49,13.94,13.94,0,0,1,1-5.23,41.1,41.1,0,0,0,1.53-3.85,18,18,0,0,0,1.11-4.22,83.65,83.65,0,0,0,.43-9.88c0-1.23-.24-2.43-.26-3.65,0-.95-.83-1.55-1.24-2.33a19.46,19.46,0,0,0-1.55-2.45c-1.47-2-3.28-3.56-6-3.32a7,7,0,0,0-5.15,3.15,14,14,0,0,1-1.68,2.08,2.62,2.62,0,0,1-1.53.66,5.42,5.42,0,0,1-4.91-1.85,60.06,60.06,0,0,1-5.78-6.77,15.87,15.87,0,0,1-2.3-5.59c-.38-1.61.12-3.05.36-4.56a4.49,4.49,0,0,0,.13-.59c0-2.52,1.19-4.65,2.33-6.74a27.59,27.59,0,0,1,6.74-7.63,42,42,0,0,1,6.94-4.49c1-.54,2.06-1,3.09-1.4,1.22-.54,2.49-.93,3.71-1.46a26.36,26.36,0,0,1,4.68-1.31,32.59,32.59,0,0,0,3.81-.79,16.31,16.31,0,0,1,3.26-.39,49.42,49.42,0,0,1,8.51-.57c.86,0,1.7.2,2.54.28a53.17,53.17,0,0,1,5.92.73c1.58.34,3.2.55,4.74,1,1.2.37,2.39.75,3.56,1.24s2.14,1,3.23,1.41a32.06,32.06,0,0,1,5.27,3,30.06,30.06,0,0,1,4,3.44,18.7,18.7,0,0,1,4.25,6.77,13.87,13.87,0,0,1,.83,7.79,19.42,19.42,0,0,1-3.06,7.75,27.29,27.29,0,0,1-2.73,3.42c-.84.84-1,.83-1.84-.08a3.22,3.22,0,0,1-.24-.28,5,5,0,0,0-4.37-2.2c-.49,0-1,0-1.47,0a9.08,9.08,0,0,0-6.78,2.8,17.86,17.86,0,0,0-2.49,2.85,9.36,9.36,0,0,0-1.39,4.61c-.16,2.15-.06,4.32,0,6.48a26.58,26.58,0,0,0,.61,3.85c.37,2.47,1.51,4.7,2.28,7.05a43.56,43.56,0,0,1,1.6,5.47,29.52,29.52,0,0,1,.41,5.21,6.8,6.8,0,0,1-2.33,5.29c-.15.13-.3.34-.47.37-1.59.31-3,1.17-4.72,1.1s-3.51,0-5.26,0Z" transform="translate(-182.83 -35)"/><path class="cls-39" d="M1611.87,340.18c-3-.32-6.23-.06-9.44-.26a25.39,25.39,0,0,1-8.59-2.12,23.75,23.75,0,0,1-10.6-9,24.61,24.61,0,0,1-3.19-6.8c-.31-1.08-.64-2.17-1-3.25a16.85,16.85,0,0,1-.56-3.48,14.58,14.58,0,0,1-.11-4.12c.21-1.09-.23-2.2-.11-3.28.16-1.54.21-3.08.4-4.62s.53-3.11.85-4.64c.23-1.1.59-2.19.88-3.29a57.17,57.17,0,0,1,2.76-7.65,63,63,0,0,1,3.86-7.42,74.58,74.58,0,0,1,5.64-8.21,64.34,64.34,0,0,1,9.7-9.89,55.05,55.05,0,0,1,14-8.46,43.61,43.61,0,0,1,7-2.07,31.33,31.33,0,0,1,10.92-.36,23.28,23.28,0,0,1,9.86,3.67c1.78,1.15,3.45,2.44,5.19,3.63a14.79,14.79,0,0,1,2.31,2.17,25.07,25.07,0,0,1,4.21,5.17c.85,1.65,2.1,3.09,2.79,4.84a18,18,0,0,1,1.22,3.81c.38,2.32,1,4.61,1.22,6.94a64.85,64.85,0,0,1,.85,9.33,59.4,59.4,0,0,1-.78,6.65c-.25,1.61-.85,3.13-1.18,4.71a14.66,14.66,0,0,1-1.47,3.84c-1,2-1.89,4.06-3,5.95a34.19,34.19,0,0,1-3.42,5.3c-1.87,2.08-3.47,4.4-5.51,6.35a62.22,62.22,0,0,1-7.93,6.45,86.3,86.3,0,0,1-7.58,4.64,44.12,44.12,0,0,1-6.58,2.87c-1.46.51-2.86,1.18-4.33,1.63A31.92,31.92,0,0,1,1611.87,340.18Zm40.76-59a25.57,25.57,0,0,0-.68-7.84,17.34,17.34,0,0,0-.42-2.25c-.52-1.27-1-2.56-1.49-3.83a34,34,0,0,0-2.09-3.8,21.08,21.08,0,0,0-10.85-8.17c-1-.32-2-.4-2.91-.72a4.55,4.55,0,0,0-1.67-.25c-2.43.1-4.89-.3-7.27.49-1.56-.2-2.94.53-4.37.91a28.13,28.13,0,0,0-4.64,1.79,35.32,35.32,0,0,0-4.71,2.48c-1.35.87-2.7,1.77-4,2.69-1.57,1.08-3,2.38-4.43,3.61a52.45,52.45,0,0,0-6.22,6.34,66.65,66.65,0,0,0-5.59,7.76,32.43,32.43,0,0,0-2.62,4.77,29.68,29.68,0,0,1-1.59,3.13c-.34.62-.36,1.3-.69,1.91a15.18,15.18,0,0,0-1.13,2.66c-.7,2.06-1.27,4.16-1.86,6.25-.41,1.48-.45,3-.86,4.51-.27,1,0,2.18-.29,3.26a13.33,13.33,0,0,0,0,6.34c.25,1,0,2.15.33,3.13.51,1.82.61,3.76,1.4,5.5a33.09,33.09,0,0,0,1.56,3.56,26.92,26.92,0,0,0,5,6.26,20.52,20.52,0,0,0,6.53,3.85c1.07.41,2.21.52,3.27.86,1.62.52,3.3.27,4.92.56a1,1,0,0,0,.36-.07c1.37-.33,2.85.06,4.17-.64a21.36,21.36,0,0,0,7.09-1.9,39.6,39.6,0,0,0,6.37-3.21,47.88,47.88,0,0,0,7.65-5.58c1.81-1.73,3.73-3.36,5.41-5.26a80.68,80.68,0,0,0,6.81-8.85,71.22,71.22,0,0,0,4.79-8.95c.56-1.2,1-2.47,1.45-3.7s.63-2.33,1.19-3.42a5.6,5.6,0,0,0,.62-1.93c.16-1.54.75-3,.9-4.52.19-2,.8-4.05.61-6.14C1652.59,282.21,1652.63,281.67,1652.63,281.14Z" transform="translate(-182.83 -35)"/><path class="cls-12" d="M1652.63,281.14c0,.53,0,1.07,0,1.59.19,2.09-.42,4.1-.61,6.14-.15,1.55-.74,3-.9,4.52a5.6,5.6,0,0,1-.62,1.93c-.56,1.09-.74,2.3-1.19,3.42s-.89,2.5-1.45,3.7a71.22,71.22,0,0,1-4.79,8.95,80.68,80.68,0,0,1-6.81,8.85c-1.68,1.9-3.6,3.53-5.41,5.26a47.88,47.88,0,0,1-7.65,5.58,39.6,39.6,0,0,1-6.37,3.21,21.36,21.36,0,0,1-7.09,1.9c-1.32.7-2.8.31-4.17.64a1,1,0,0,1-.36.07c-1.62-.29-3.3,0-4.92-.56-1.06-.34-2.2-.45-3.27-.86a20.52,20.52,0,0,1-6.53-3.85,26.92,26.92,0,0,1-5-6.26,33.09,33.09,0,0,1-1.56-3.56c-.79-1.74-.89-3.68-1.4-5.5-.28-1-.08-2.1-.33-3.13a13.33,13.33,0,0,1,0-6.34c.27-1.08,0-2.24.29-3.26.41-1.49.45-3,.86-4.51.59-2.09,1.16-4.19,1.86-6.25a15.18,15.18,0,0,1,1.13-2.66c.33-.61.35-1.29.69-1.91a29.68,29.68,0,0,0,1.59-3.13,32.43,32.43,0,0,1,2.62-4.77,66.65,66.65,0,0,1,5.59-7.76,52.45,52.45,0,0,1,6.22-6.34c1.46-1.23,2.86-2.53,4.43-3.61,1.32-.92,2.67-1.82,4-2.69a35.32,35.32,0,0,1,4.71-2.48,28.13,28.13,0,0,1,4.64-1.79c1.43-.38,2.81-1.11,4.37-.91,2.38-.79,4.84-.39,7.27-.49a4.55,4.55,0,0,1,1.67.25c1,.32,2,.4,2.91.72a21.08,21.08,0,0,1,10.85,8.17,34,34,0,0,1,2.09,3.8c.52,1.27,1,2.56,1.49,3.83a17.34,17.34,0,0,1,.42,2.25A25.57,25.57,0,0,1,1652.63,281.14Zm-20.53,2.31c0-.7,0-1.27,0-1.84a8.56,8.56,0,0,0-1-4.31,9.07,9.07,0,0,0-2.57-3,8.32,8.32,0,0,0-3.86-1.61,12.16,12.16,0,0,0-5.61.53,24.7,24.7,0,0,0-6,3.06,31.87,31.87,0,0,0-7.28,6.77,39.27,39.27,0,0,0-6.1,10.05,28.42,28.42,0,0,0-1.88,5.7,21.9,21.9,0,0,0,.15,9.05c.76,2.88,3.94,5.91,7.52,5.86h2.93a1.77,1.77,0,0,0,.73,0c1.56-.75,3.28-1.07,4.81-1.94a29,29,0,0,0,6.64-4.89c1-1.07,2.11-2.12,3.07-3.29a38.76,38.76,0,0,0,4.14-5.83,30.17,30.17,0,0,0,2-4.11,39.71,39.71,0,0,0,2-6.17A28.26,28.26,0,0,0,1632.1,283.45Z" transform="translate(-182.83 -35)"/><path class="cls-39" d="M1632.1,283.45a28.26,28.26,0,0,1-.34,4,39.71,39.71,0,0,1-2,6.17,30.17,30.17,0,0,1-2,4.11,38.76,38.76,0,0,1-4.14,5.83c-1,1.17-2,2.22-3.07,3.29a29,29,0,0,1-6.64,4.89c-1.53.87-3.25,1.19-4.81,1.94a1.77,1.77,0,0,1-.73,0h-2.93c-3.58.05-6.76-3-7.52-5.86a21.9,21.9,0,0,1-.15-9.05,28.42,28.42,0,0,1,1.88-5.7,39.27,39.27,0,0,1,6.1-10.05,31.87,31.87,0,0,1,7.28-6.77,24.7,24.7,0,0,1,6-3.06,12.16,12.16,0,0,1,5.61-.53,8.32,8.32,0,0,1,3.86,1.61,9.07,9.07,0,0,1,2.57,3,8.56,8.56,0,0,1,1,4.31C1632.08,282.18,1632.1,282.75,1632.1,283.45Zm-25.49,27.14a8.46,8.46,0,0,0,2.39-.38,23.1,23.1,0,0,0,6.55-3.67,35.23,35.23,0,0,0,7.08-7.65,37,37,0,0,0,3.92-7.11,19.27,19.27,0,0,0,1.62-5.59,7.82,7.82,0,0,1,.34-1.92,3.63,3.63,0,0,0,0-2.28,10.11,10.11,0,0,1-.41-1.89c-.23-1.8-2.17-4.06-4.18-4.18a11.59,11.59,0,0,0-5.65,1.11,27.08,27.08,0,0,0-7.9,6,37,37,0,0,0-5.43,7.31,31,31,0,0,0-2.72,5.95c-1,3.08-1.8,6.23-1,9.53a.49.49,0,0,1,0,.12A5.07,5.07,0,0,0,1606.61,310.59Z" transform="translate(-182.83 -35)"/></svg>