<svg xmlns="http://www.w3.org/2000/svg" viewBox="0 0 299.23 507.96"><defs><style>.cls-1{fill:#6d110f;}.cls-2{fill:#225529;}</style></defs><title>red pepper</title><g id="Layer_2" data-name="Layer 2"><path class="cls-1" d="M699.54,319.09a57,57,0,0,0-17.6-2.27Q652,315.9,622,315.73c-18-.1-38-2.19-53.09,9.42-12,9.2-18.67,23.5-23.45,37.46-6,17.44-10.22,35.59-14.24,53.56-16.35,73-23.92,149.53-56,218.05C467.4,651.05,457,667.48,453.57,686c-2.48,13.55-1.84,33.92,13.13,40.31,8.17,3.49,17.47.39,25.34-2.52a124.2,124.2,0,0,0,22-10.72c14.19-8.74,26.74-20,38.22-32,12.39-13,23.69-26.91,35.14-40.68l40.84-49.11c26.74-32.15,54.24-63.82,80.11-96.69,22.89-29.09,43.33-62.58,43-100.87C751.06,361,732.17,328.65,699.54,319.09Z" transform="translate(-452.47 -219.91)"/></g><g id="Layer_3" data-name="Layer 3"><path class="cls-2" d="M733.79,337.81c-10.22-15.94-23.83-29.35-39.09-40.45q-5.41-3.94-11.11-7.47c-2-1.24-4-2.45-6.08-3.62-1.85-1-5-2-6.41-3.61-2.47-2.76,0-10.53.36-14.05a176.19,176.19,0,0,0,.7-18.52,166.55,166.55,0,0,0-1.37-19.46c-.58-4.41-2.11-8.57-6.82-9.95-5.67-1.65-13.18-.16-19,0l-20.73.53a5.07,5.07,0,0,0-4.82,6.33,129.35,129.35,0,0,1,1,53.93,54.83,54.83,0,0,1-3.38,4.87c-22.48,7.87-44.74,17.94-60.95,35.5-11.46,12.42-18,27.72-22,44-4.68,19-7.46,38.49-9.31,57.92-.47,5,7.12,6.77,9.32,2.52,1-1.91,2-3.84,2.95-5.75a4.59,4.59,0,0,0,2.76-3.07q.75-2.69,1.56-5.34,7.41-14.57,14.61-29.23A103.25,103.25,0,0,0,576,416.08c2.18,2.42,6.3,1.65,7.86-1,9.21-15.78,23.25-29.58,40.1-37.05,2.65-1.18,3.77-1.18,5.35,1.23s3.2,4.87,4.8,7.31q4.51,6.92,9.05,13.82l18.63,28.44c1.57,2.4,5.75,3.7,7.85,1,6-7.67,12.3-15.15,18.87-22.36q4.94-5.42,10.06-10.64c1.36-1.38,8.55-10.25,10.54-9.49,1.08.42,1.93,4.23,2.23,5.08q1.29,3.74,2.56,7.47l5.13,14.93q5.14,14.94,10.27,29.87a5.07,5.07,0,0,0,9.14,1.2C759,412.75,754.28,369.74,733.79,337.81ZM632.28,281.26l-.44.14c.21-.42.41-.85.61-1.28a5.92,5.92,0,0,0,.35.48Zm7.62,10.18a4.71,4.71,0,0,0-.62-.16c.33-.33.65-.67,1-1Zm21.82,56.2a4.55,4.55,0,0,0,.75-.17l0,5C662.24,350.86,662,349.25,661.72,347.64Zm55.73-15.28-.16.07q-2.37-3.12-4.95-6.05Q715,329.3,717.45,332.36Zm-5.29,45.31a9.28,9.28,0,0,0-2.19-.45,13.58,13.58,0,0,1,2.55-.21c.13.33.26.65.38,1C712.66,377.87,712.42,377.76,712.16,377.67ZM728.08,385c.12-.09.24-.18.35-.28q.32,1.73.57,3.48C728.69,387.17,728.39,386.1,728.08,385Z" transform="translate(-452.47 -219.91)"/></g></svg>